<?xml version="1.0" encoding="UTF-8"?>
<svg version="1.1" xmlns="http://www.w3.org/2000/svg" width="1024" height="427">
<path d="M0 0 C15.52846059 0.91343886 27.9140287 9.28443376 38.3125 20.3125 C48.28425327 32.42105755 53.01711516 45.00446635 57 60 C57.1949707 60.73202637 57.38994141 61.46405273 57.59082031 62.21826172 C59.97106304 71.66869007 60.47011375 81.35159442 60.8125 91.0625 C60.9216272 92.79439575 60.9216272 92.79439575 61.03295898 94.5612793 C61.10483791 99.46656928 61.14972881 102.68034516 57.83935547 106.47998047 C55.30983949 108.50738452 52.73432387 110.26351882 50 112 C48.81619113 112.9796467 47.64612878 113.97652556 46.5 115 C44 117 44 117 42 117 C41.773125 117.5775 41.54625 118.155 41.3125 118.75 C39.65151778 121.59739809 37.68475439 123.12067193 35 125 C34.34 125 33.68 125 33 125 C32.79375 125.556875 32.5875 126.11375 32.375 126.6875 C30.81741878 129.30706841 28.88150282 130.77785734 26.51171875 132.6484375 C24.1693097 134.74268435 22.69658442 137.37303058 21 140 C19.33333333 141.66666667 17.66666667 143.33333333 16 145 C15.34 145.99 14.68 146.98 14 148 C12 151 12 151 9.6875 153.1875 C6.39382746 156.63436661 4.11094399 160.40952689 1.6484375 164.4765625 C0.22337515 166.65805605 -1.17646741 168.18149091 -3 170 C-4.08703222 171.84738308 -4.08703222 171.84738308 -5.0625 174 C-6.67313897 177.35589851 -8.34352635 180.65059466 -10.16015625 183.8984375 C-24.85115556 210.37681734 -37.71885361 243.54796293 -40.625 274.0625 C-40.74875 275.361875 -40.8725 276.66125 -41 278 C-44.3 278 -47.6 278 -51 278 C-51 205.4 -51 132.8 -51 58 C-43.08 55.525 -43.08 55.525 -35 53 C-28.01639536 49.61619157 -22.73933259 46.12876529 -17 41 C-16.34 41 -15.68 41 -15 41 C-14.73960937 40.2678125 -14.47921875 39.535625 -14.2109375 38.78125 C-12.9751452 35.94291414 -11.52922247 33.92809153 -9.625 31.5 C-2.97668699 22.17024682 -1.38767794 11.15620029 0 0 Z " fill="#0D838D" transform="translate(169,149)"/>
<path d="M0 0 C0.14695312 1.41539062 0.14695312 1.41539062 0.296875 2.859375 C1.55454718 13.65800851 3.19850931 24.13745152 10 33 C10.53560547 33.82371094 10.53560547 33.82371094 11.08203125 34.6640625 C20.21574996 48.53265212 34.67606607 53.28494341 50 58 C50 130.6 50 203.2 50 278 C47.03 278 44.06 278 41 278 C39.21083283 276.21083283 39.49613872 273.42733042 39.20703125 271 C38.13973172 263.21846992 36.32992221 255.7610284 34.27856445 248.18652344 C33.68875238 246.00463294 33.11403965 243.81916475 32.54101562 241.6328125 C30.13687703 232.56885156 27.33454876 223.77178781 24 215 C23.66564941 214.11594482 23.33129883 213.23188965 22.98681641 212.32104492 C20.46821748 205.84895062 17.55326747 199.57789046 14.5625 193.3125 C14.09779297 192.31927734 13.63308594 191.32605469 13.15429688 190.30273438 C11.11234986 186.01663918 9.10004809 181.93428552 6.27734375 178.10546875 C4.25244403 175.34424186 3.2110036 173.14553054 2 170 C0.8013901 168.19398643 -0.45308139 166.42426504 -1.75 164.6875 C-2.46027344 163.73230469 -3.17054687 162.77710938 -3.90234375 161.79296875 C-4.59457031 160.87128906 -5.28679688 159.94960938 -6 159 C-6.57878906 158.21238281 -7.15757813 157.42476562 -7.75390625 156.61328125 C-10.48490515 152.86656828 -10.48490515 152.86656828 -13.58203125 149.4296875 C-15 148 -15 148 -16.375 145.625 C-18.24926041 142.59734857 -20.4243179 140.45303057 -23 138 C-25.96347961 135.1145067 -28.71634516 132.16308712 -31.375 129 C-34.06798096 125.87965468 -36.7467815 123.49898437 -40.2265625 121.30078125 C-42.74168149 119.45599133 -44.79903226 117.20746986 -47 115 C-48.87503275 113.3920881 -50.77102247 111.80828186 -52.6875 110.25 C-53.64011719 109.47140625 -54.59273437 108.6928125 -55.57421875 107.890625 C-57.8354719 106.00013941 -57.8354719 106.00013941 -60 105 C-60.83275834 69.00562207 -60.83275834 69.00562207 -56 54 C-55.79101074 53.29037109 -55.58202148 52.58074219 -55.36669922 51.84960938 C-50.56643344 35.58264131 -42.5997031 23.3113124 -30 12 C-29.37996094 11.40574219 -28.75992187 10.81148437 -28.12109375 10.19921875 C-21.36209826 4.34747097 -9.03594637 -0.74853994 0 0 Z " fill="#0D838D" transform="translate(60,149)"/>
<path d="M0 0 C0 -2.31 0 -4.62 0 -7 C8.91 -7 17.82 -7 27 -7 C27 35.57 27 78.14 27 122 C21.06514649 122 19.01263814 121.96302641 14 119.75 C13.030625 119.33234375 12.06125 118.9146875 11.0625 118.484375 C8 117 8 117 6.30810547 115.81030273 C4.34205709 114.38326643 4.34205709 114.38326643 1 113 C-1.81345878 114.02861078 -3.50107497 114.88567994 -5.875 116.5625 C-15.80438866 123.19350553 -24.23290564 124.55923448 -36.1875 124.5 C-37.47946289 124.49572998 -38.77142578 124.49145996 -40.10253906 124.48706055 C-49.38765625 124.32096142 -56.70206813 123.38797579 -65 119 C-65.77988281 118.66226563 -66.55976562 118.32453125 -67.36328125 117.9765625 C-83.24423965 110.47330329 -94.88801336 93.97728178 -101 78 C-102.20787082 73.3219757 -102.75345359 68.81886174 -103 64 C-103.05671875 62.93265625 -103.1134375 61.8653125 -103.171875 60.765625 C-103.50184685 47.23677928 -101.82247929 35.7704655 -95 24 C-94.34257813 22.72962891 -94.34257813 22.72962891 -93.671875 21.43359375 C-91.2948818 16.86766062 -88.899239 13.44583912 -85 10 C-84.41347656 9.45730469 -83.82695313 8.91460937 -83.22265625 8.35546875 C-59.14675213 -13.52738271 -28.11712134 -15.44896777 0 0 Z M-50 23 C-51.03447266 23.41765625 -51.03447266 23.41765625 -52.08984375 23.84375 C-62.2634351 28.37402484 -68.20442671 37.2652098 -72.375 47.3125 C-74.62762182 60.60296875 -71.97590299 69.94724396 -64.66015625 80.9921875 C-61.1273332 85.26482526 -56.86264046 87.76540185 -51.9375 90.1875 C-50.91527344 90.69667969 -49.89304687 91.20585937 -48.83984375 91.73046875 C-41.80312617 94.87618156 -33.6710361 95.20205684 -26.20703125 93.28125 C-23.71010331 92.32119088 -21.37124292 91.23663788 -19 90 C-17.95392578 89.49146484 -17.95392578 89.49146484 -16.88671875 88.97265625 C-9.70648287 85.05489648 -3.96663377 78.34257106 -1.0625 70.6875 C1.63333611 60.67942869 1.85346907 50.7101856 -2 41 C-3.7207192 38.03188265 -5.6867797 35.5256589 -8 33 C-8.78375 32.113125 -9.5675 31.22625 -10.375 30.3125 C-18.54220244 23.11758357 -27.34777624 19.37486203 -38.30078125 19.7109375 C-42.5007839 20.16072071 -46.13053074 21.3467461 -50 23 Z " fill="#0D838E" transform="translate(997,303)"/>
<path d="M0 0 C9.9 0 19.8 0 30 0 C30 15.84 30 31.68 30 48 C37.92 45.525 37.92 45.525 46 43 C63.80441036 40.45651281 81.06561148 42.13811628 96.5625 52.125 C98.5778166 53.67524354 100.2864378 55.13743239 102 57 C103.175625 58.0209375 103.175625 58.0209375 104.375 59.0625 C111.9145695 67.4996373 114.31872731 77.51053758 114.22705078 88.51538086 C114.22734283 89.44299225 114.22763489 90.37060364 114.22793579 91.32632446 C114.22654967 94.37259487 114.21102231 97.41861641 114.1953125 100.46484375 C114.19157982 102.58476121 114.18873405 104.70468041 114.18673706 106.82460022 C114.1791207 112.38946338 114.15948937 117.95422125 114.1373291 123.51904297 C114.11682761 129.20343603 114.10772615 134.8878462 114.09765625 140.57226562 C114.07624159 151.71488987 114.04212978 162.85743616 114 174 C110.81267746 174.08797281 107.62567212 174.14071341 104.4375 174.1875 C103.54224609 174.21263672 102.64699219 174.23777344 101.72460938 174.26367188 C95.17702448 174.33562336 90.16637508 173.82486612 85.08654785 169.29292297 C83.52822685 166.00442534 83.58490733 162.87796449 83.61523438 159.31323242 C83.6098616 158.54360672 83.60448883 157.77398102 83.59895325 156.98103333 C83.58918233 155.31250199 83.58622903 153.64391988 83.58930969 151.97536278 C83.593792 149.33068546 83.57977485 146.68667582 83.56091309 144.04206848 C83.52413468 138.4238899 83.51042797 132.80578122 83.5 127.1875 C83.48790761 120.68582551 83.4662698 114.18447598 83.41999817 107.68294716 C83.40646583 105.08441397 83.41059257 102.48629547 83.41540527 99.88774109 C83.40605919 98.2834725 83.395889 96.67920843 83.38476562 95.07495117 C83.39091385 94.3583432 83.39706207 93.64173523 83.40339661 92.90341187 C83.33469794 87.23364222 81.98938295 82.874939 78.75390625 78.19921875 C71.90713004 73.5177927 60.10945239 71.74121933 52 73 C48.29091508 73.92927398 44.64968987 74.97243613 41.00390625 76.125 C38 77 38 77 35 77 C34.31379969 78.32338632 33.65213539 79.65949948 33 81 C32.48005966 82.04156502 32.48005966 82.04156502 31.94961548 83.10417175 C30.68760433 86.95264264 30.69190578 90.63900587 30.68115234 94.64575195 C30.67110672 95.5047963 30.6610611 96.36384064 30.65071106 97.24891663 C30.61990451 100.07869824 30.60285092 102.90838535 30.5859375 105.73828125 C30.56722382 107.70412508 30.54765026 109.66996089 30.5272522 111.63578796 C30.47594614 116.80273715 30.43631217 121.96971237 30.39910889 127.13677979 C30.35905974 132.41221551 30.30797153 137.68754306 30.2578125 142.96289062 C30.16107117 153.30852528 30.07768109 163.65420465 30 174 C20.1 174 10.2 174 0 174 C0 116.58 0 59.16 0 0 Z " fill="#0D838E" transform="translate(761,251)"/>
<path d="M0 0 C9.9 0 19.8 0 30 0 C30 15.84 30 31.68 30 48 C37.92 45.525 37.92 45.525 46 43 C63.14560273 40.14239954 81.21132061 42.11485684 95.94921875 51.97265625 C103.42128118 57.75254629 110.11426287 64.81431888 113 74 C113.28422684 77.24993599 113.25261434 80.48688622 113.22705078 83.74731445 C113.22734283 84.72340164 113.22763489 85.69948883 113.22793579 86.70515442 C113.22654482 89.92462112 113.21099438 93.14385508 113.1953125 96.36328125 C113.19158155 98.5981585 113.18873496 100.8330374 113.18673706 103.06791687 C113.1791071 108.9451653 113.15946398 114.82231461 113.1373291 120.69952393 C113.11685701 126.69875752 113.10773242 132.69800716 113.09765625 138.69726562 C113.07621757 150.46488726 113.04208922 162.23243538 113 174 C109.95809137 174.05421223 106.91716001 174.09377548 103.875 174.125 C103.0190625 174.14175781 102.163125 174.15851563 101.28125 174.17578125 C95.77336931 174.21814956 90.63601493 174.1815296 86.1875 170.5 C83.45158258 167.04410432 83.84821532 163.64724477 83.84228516 159.43261719 C83.83720444 158.65192368 83.83212372 157.87123016 83.82688904 157.06687927 C83.81617515 155.36828489 83.80755897 153.66967631 83.80076981 151.97106171 C83.78899205 149.28078311 83.76954094 146.59066587 83.74765015 143.90045166 C83.68600482 136.25025825 83.63202928 128.60007997 83.59863281 120.94970703 C83.57766335 116.27236143 83.54233837 111.59530763 83.49787521 106.91812897 C83.48372922 105.1368275 83.47499594 103.35547438 83.47182083 101.57411957 C83.46690083 99.07742396 83.44371426 96.58149934 83.41650391 94.08496094 C83.41951004 93.35226486 83.42251617 92.61956879 83.4256134 91.8646698 C83.33773268 86.42288645 81.90176589 82.6529336 78.75390625 78.26171875 C72.01483786 73.41379204 60.08568554 71.83141187 52 73 C40.70616892 74.99482089 40.70616892 74.99482089 32 82 C30.71203308 86.4345885 30.82782219 90.97262588 30.79467773 95.55395508 C30.77982834 96.82789124 30.77982834 96.82789124 30.76467896 98.12756348 C30.73318091 100.92485805 30.7083529 103.72216959 30.68359375 106.51953125 C30.66301412 108.46295097 30.64201738 110.40636632 30.62062073 112.34977722 C30.5655043 117.45755463 30.51604912 122.56537174 30.46777344 127.67321777 C30.41748217 132.88830079 30.36183595 138.10332636 30.30664062 143.31835938 C30.19918662 153.54552561 30.09820847 163.7727408 30 174 C20.1 174 10.2 174 0 174 C0 116.58 0 59.16 0 0 Z " fill="#0D838E" transform="translate(335,251)"/>
<path d="M0 0 C10.23 0 20.46 0 31 0 C31.33 34.65 31.66 69.3 32 105 C32.33 104.34 32.66 103.68 33 103 C33.66 103 34.32 103 35 103 C35.2784375 101.7625 35.2784375 101.7625 35.5625 100.5 C37.17657613 96.57007551 39.21015831 94.36941649 42.05859375 91.2890625 C44.92114384 87.91390283 47.13879225 84.19999134 49.421875 80.41796875 C50.81381971 78.28526138 52.19604914 76.76408454 54 75 C54.97173945 73.28326031 55.94191437 71.56550995 56.890625 69.8359375 C58.00283611 67.99530644 59.22156351 66.43883522 60.625 64.8125 C62.54978053 62.53315463 63.8516854 60.71419816 65 58 C65.66 58 66.32 58 67 58 C67.226875 57.443125 67.45375 56.88625 67.6875 56.3125 C69.76009637 52.66078259 71.86532184 49.70930267 76.00146484 48.33496094 C83.23952552 46.86040099 90.25704945 46.76821811 97.625 46.875 C99.41744141 46.88853516 99.41744141 46.88853516 101.24609375 46.90234375 C104.16427834 46.92568923 107.08202776 46.95843344 110 47 C109.00887398 52.96698317 106.21588381 56.78411619 102 61 C101.566875 61.7425 101.13375 62.485 100.6875 63.25 C98.88076777 66.19430438 96.81227323 68.60311498 94.5 71.15625 C92.92769152 72.99923481 92.92769152 72.99923481 91.65234375 75.25 C89.50057818 78.83118904 87.04526377 82.14311726 84.5625 85.5 C84.08490234 86.15097656 83.60730469 86.80195313 83.11523438 87.47265625 C80.48386271 91.04612394 77.77478888 94.53608773 75 98 C74.34 98.99 73.68 99.98 73 101 C71 104 71 104 68.8125 106.6875 C66.8297297 108.95025024 66.8297297 108.95025024 66 112 C67.485 112.495 67.485 112.495 69 113 C70.36279297 114.56298828 70.36279297 114.56298828 71.7421875 116.5703125 C72.25136719 117.3025 72.76054688 118.0346875 73.28515625 118.7890625 C73.80980469 119.55992187 74.33445312 120.33078125 74.875 121.125 C75.91393188 122.62769449 76.95299304 124.1302996 77.9921875 125.6328125 C78.49331055 126.36532227 78.99443359 127.09783203 79.51074219 127.85253906 C80.93423969 129.90517579 82.40274095 131.91766634 83.8828125 133.9296875 C86 137 86 137 86 139 C86.66 139 87.32 139 88 139 C89.4045405 140.82227022 90.72167292 142.71207484 92 144.625 C92.80372181 145.81315381 93.60844667 147.00062959 94.4140625 148.1875 C94.83461914 148.81011719 95.25517578 149.43273437 95.68847656 150.07421875 C97.87643097 153.28691129 100.12158826 156.45802038 102.375 159.625 C102.79136719 160.21619629 103.20773437 160.80739258 103.63671875 161.41650391 C105.9773537 164.70653651 105.9773537 164.70653651 108.7890625 167.5859375 C110.54815532 169.64010395 110.0822942 171.3777352 110 174 C105.70846555 174.08807085 101.41716776 174.14074921 97.125 174.1875 C95.92101562 174.21263672 94.71703125 174.23777344 93.4765625 174.26367188 C85.05197383 174.33235059 76.85796788 174.18701694 70.125 168.625 C69.42375 167.75875 68.7225 166.8925 68 166 C67.29875 165.175 66.5975 164.35 65.875 163.5 C64 161 64 161 62.70703125 158.79296875 C60.1803118 154.65886256 57.28239697 150.80575388 54.40820312 146.90820312 C51 142.21502209 51 142.21502209 51 140 C50.01 139.67 49.02 139.34 48 139 C46.89453125 137.5390625 46.89453125 137.5390625 45.8125 135.625 C41.71955876 128.73293481 36.80440253 122.40587004 32 116 C31.67 135.14 31.34 154.28 31 174 C26.070625 174.020625 21.14125 174.04125 16.0625 174.0625 C13.7268396 174.07615601 13.7268396 174.07615601 11.34399414 174.09008789 C9.52049438 174.09383423 9.52049438 174.09383423 7.66015625 174.09765625 C6.40855713 174.10289307 5.15695801 174.10812988 3.86743164 174.11352539 C1 174 1 174 0 173 C-0.09703132 170.77241743 -0.12186673 168.54169074 -0.12025452 166.31199646 C-0.12110894 165.60468748 -0.12196337 164.89737849 -0.12284368 164.1686359 C-0.12450055 161.78093718 -0.11897377 159.39330757 -0.11352539 157.00561523 C-0.11324354 155.30105593 -0.11340122 153.59649649 -0.1139679 151.89193726 C-0.11425594 147.249572 -0.10835806 142.60723235 -0.10139394 137.96487308 C-0.09516159 133.11884105 -0.0945567 128.27280849 -0.09336853 123.42677307 C-0.09025486 114.24344036 -0.082041 105.0601195 -0.07201904 95.87679201 C-0.060859 85.42473229 -0.05534773 74.97267202 -0.05032361 64.52060783 C-0.03985841 43.01373175 -0.02205791 21.50686704 0 0 Z " fill="#0D838E" transform="translate(530,251)"/>
<path d="M0 0 C1.1873877 0.00088623 2.37477539 0.00177246 3.59814453 0.00268555 C14.41385737 0.14729634 26.9450206 0.74247819 36 7.375 C37.07917226 10.61251678 37.11425601 12.95251771 37.09765625 16.35546875 C37.09282227 18.10053711 37.09282227 18.10053711 37.08789062 19.88085938 C37.07532227 21.70327148 37.07532227 21.70327148 37.0625 23.5625 C37.05798828 24.78904297 37.05347656 26.01558594 37.04882812 27.27929688 C37.03703065 30.31124668 37.02056921 33.34309906 37 36.375 C31.39813646 35.8288685 25.95058712 35.04426556 20.4375 33.875 C8.07930307 31.33861484 -4.03485952 29.2988798 -16 34.375 C-16.06170036 37.74383855 -16.06170036 37.74383855 -15 41.375 C-12.54872317 43.141686 -10.65846687 44.21312151 -7.9375 45.375 C-6.86471802 45.87181274 -6.86471802 45.87181274 -5.77026367 46.37866211 C-3.52591034 47.408378 -1.26713067 48.39656963 1 49.375 C1.69770508 49.67937988 2.39541016 49.98375977 3.11425781 50.29736328 C5.80344566 51.47027966 8.49494858 52.63780581 11.1875 53.80297852 C21.31790514 58.21626149 30.22713516 62.3097809 37 71.375 C37.66 72.035 38.32 72.695 39 73.375 C44.29539902 85.60437433 45.69229825 97.09781963 41.15234375 109.734375 C39.08787275 114.71585158 36.6649777 118.42810093 33 122.375 C32.39091797 123.08849609 32.39091797 123.08849609 31.76953125 123.81640625 C29.21655492 126.06505428 26.28123791 127.45065862 23.25 128.9375 C22.65445313 129.24107422 22.05890625 129.54464844 21.4453125 129.85742188 C12.86344383 134.120493 5.01419354 134.7477701 -4.37597656 134.74560547 C-6.46765489 134.74993308 -8.55713766 134.78618614 -10.6484375 134.82421875 C-22.36662789 134.9227694 -33.62493073 133.23597095 -44 127.375 C-47.52266614 122.6376214 -48.12846492 118.52640544 -48.09765625 112.734375 C-48.09282227 111.12949219 -48.09282227 111.12949219 -48.08789062 109.4921875 C-48.07951172 108.38101563 -48.07113281 107.26984375 -48.0625 106.125 C-48.05798828 104.99835938 -48.05347656 103.87171875 -48.04882812 102.7109375 C-48.03705397 99.93223783 -48.0206084 97.15364591 -48 94.375 C-44.65423907 95.00800044 -41.79753285 95.8009667 -38.6875 97.1875 C-28.04784436 101.46529969 -17.90488024 103.73214587 -6.4375 103.8125 C-5.60492676 103.82249023 -4.77235352 103.83248047 -3.91455078 103.84277344 C1.43726414 103.76713705 5.25364798 102.88087636 10 100.375 C12.07665189 97.8657123 12.01111108 96.64166587 11.875 93.375 C10.66704917 89.23345428 8.51915416 87.21690886 4.765625 85.13671875 C3.93546875 84.78222656 3.1053125 84.42773438 2.25 84.0625 C1.28578125 83.64355469 0.3215625 83.22460938 -0.671875 82.79296875 C-2.31929688 82.09107422 -2.31929688 82.09107422 -4 81.375 C-5.29752666 80.81008816 -6.59437073 80.24360664 -7.890625 79.67578125 C-8.56351562 79.3811499 -9.23640625 79.08651855 -9.9296875 78.78295898 C-11.31546157 78.17521208 -12.70087585 77.56664416 -14.0859375 76.95727539 C-17.06176262 75.65004803 -20.03681189 74.35999208 -23.046875 73.1328125 C-33.06601285 68.93404086 -42.77746307 62.96719326 -47.9453125 53.10546875 C-51.78788477 43.15747609 -51.84977245 33.36989602 -47.83984375 23.52734375 C-42.77455369 13.26977864 -35.71573105 7.56485984 -25.1875 3.3828125 C-16.72488402 0.70713245 -8.87901577 -0.01187201 0 0 Z " fill="#0D838E" transform="translate(272,292.625)"/>
<path d="M0 0 C1.1873877 0.00161133 2.37477539 0.00322266 3.59814453 0.00488281 C27.97155732 0.34234557 27.97155732 0.34234557 36 8.375 C36.56762695 11.39941406 36.56762695 11.39941406 36.48828125 14.890625 C36.47216797 16.14101563 36.45605469 17.39140625 36.43945312 18.6796875 C36.39755859 19.98164063 36.35566406 21.28359375 36.3125 22.625 C36.28994141 23.94242187 36.26738281 25.25984375 36.24414062 26.6171875 C36.18519594 29.87093404 36.10295053 33.12239671 36 36.375 C30.55016727 35.8491186 25.28285902 35.10240735 19.9375 33.875 C2.62761045 30.02735432 2.62761045 30.02735432 -14 34.375 C-15.37785736 35.52544799 -15.37785736 35.52544799 -15.11328125 38.6484375 C-14.40433048 42.31268646 -14.40433048 42.31268646 -12.32568359 43.71191406 C-9.98850344 44.94635138 -7.63083436 45.9917573 -5.1875 47 C-4.32181396 47.38333496 -3.45612793 47.76666992 -2.56420898 48.16162109 C2.06631857 50.196515 6.75020564 52.10008335 11.4375 54 C20.21995537 57.58945858 28.39113224 61.55657828 34 69.375 C34.86625 70.2 35.7325 71.025 36.625 71.875 C43.67259472 79.29352076 43.24558175 88.53967066 43.15625 98.1875 C42.73030826 106.87671146 40.58771785 114.36855137 34 120.375 C33.2575 121.179375 32.515 121.98375 31.75 122.8125 C20.79797547 133.01779559 7.76114622 135.09766546 -6.75 134.875 C-7.45455322 134.86946106 -8.15910645 134.86392212 -8.88500977 134.85821533 C-21.907869 134.7379622 -35.18839019 134.56176242 -45.71484375 125.83984375 C-48.49723406 122.66842622 -48.11641072 119.17048397 -48.09765625 115.17578125 C-48.09443359 113.96728516 -48.09121094 112.75878906 -48.08789062 111.51367188 C-48.07951172 110.25103516 -48.07113281 108.98839844 -48.0625 107.6875 C-48.05798828 106.41326172 -48.05347656 105.13902344 -48.04882812 103.82617188 C-48.03702873 100.67573436 -48.02056597 97.52539051 -48 94.375 C-42.76589654 95.90716716 -37.58323325 97.45085663 -32.5 99.4375 C-23.81943605 102.57984007 -16.0195433 103.5549908 -6.8125 103.625 C-5.95664307 103.6343457 -5.10078613 103.64369141 -4.21899414 103.65332031 C0.89420211 103.62747852 5.18278158 103.13246289 10 101.375 C12.93297816 98.05945947 12.13944086 93.55822577 12 89.375 C11.45601562 89.10429687 10.91203125 88.83359375 10.3515625 88.5546875 C8.67556192 87.71390315 7.00415487 86.86393578 5.3359375 86.0078125 C-0.21610206 83.18052059 -5.74899086 80.61096506 -11.5625 78.375 C-15.02602878 76.95406512 -18.31431141 75.23234339 -21.63671875 73.51171875 C-23.73369456 72.50309072 -25.71834719 71.79842926 -27.9375 71.125 C-36.38224663 68.04796681 -44.30741282 60.60590975 -48.8046875 52.92578125 C-51.763687 44.13581214 -52.12752631 32.29524938 -48.7421875 23.54296875 C-45.21433765 16.77977922 -45.21433765 16.77977922 -41 15.375 C-40.566875 14.4778125 -40.566875 14.4778125 -40.125 13.5625 C-37.69132582 8.83035577 -32.99467859 6.69556926 -28.25 4.75 C-26.80367187 4.14285156 -26.80367187 4.14285156 -25.328125 3.5234375 C-16.86774573 0.60401085 -8.93313167 -0.01257302 0 0 Z " fill="#0D838E" transform="translate(699,292.625)"/>
<path d="M0 0 C5.09361072 0.90370513 7.59592165 3.33477943 11.453125 6.66015625 C13.47709337 8.35441364 15.31124242 9.64133722 17.625 10.875 C20.10212254 12.25647219 21.8932042 13.44264726 24 15.25 C26.56290317 17.42289617 29.0015541 18.97884886 31.875 20.6875 C33.48887874 21.79852256 35.09295322 22.92390602 36.6875 24.0625 C40.43718925 26.71526523 44.23316419 29.20465789 48.18359375 31.546875 C49.875 32.6875 49.875 32.6875 51.22265625 34.078125 C53.54147764 36.33664607 56.15906648 37.92675998 58.875 39.6875 C61.65587455 41.52692186 64.42302254 43.38605296 67.1875 45.25 C67.91517578 45.73146484 68.64285156 46.21292969 69.39257812 46.70898438 C70.42995117 47.4118457 70.42995117 47.4118457 71.48828125 48.12890625 C72.42861206 48.75841187 72.42861206 48.75841187 73.38793945 49.40063477 C74.875 50.6875 74.875 50.6875 75.875 53.6875 C73.565 53.6875 71.255 53.6875 68.875 53.6875 C68.875 62.5975 68.875 71.5075 68.875 80.6875 C66.895 80.6875 64.915 80.6875 62.875 80.6875 C60.875 78.6875 60.875 78.6875 60.64794922 76.16552734 C60.66365967 74.61019287 60.66365967 74.61019287 60.6796875 73.0234375 C60.68935547 71.34121094 60.68935547 71.34121094 60.69921875 69.625 C60.72435547 67.8615625 60.72435547 67.8615625 60.75 66.0625 C60.75902344 64.87914063 60.76804688 63.69578125 60.77734375 62.4765625 C60.80097095 59.54678943 60.83684287 56.61711986 60.875 53.6875 C53.615 53.6875 46.355 53.6875 38.875 53.6875 C38.875 63.2575 38.875 72.8275 38.875 82.6875 C35.09654768 81.93180954 33.2157861 81.52523224 30.0625 79.8125 C14.95234101 72.03105108 -6.84657403 70.54810535 -23.125 75.6875 C-26.89373026 77.33336392 -30.49406015 79.24024716 -34.09375 81.2265625 C-37.125 82.6875 -37.125 82.6875 -41.125 82.6875 C-41.125 73.1175 -41.125 63.5475 -41.125 53.6875 C-53.335 53.6875 -65.545 53.6875 -78.125 53.6875 C-77.00137403 50.31662208 -76.53813635 50.02639968 -73.66015625 48.234375 C-72.94778809 47.78376709 -72.23541992 47.33315918 -71.50146484 46.86889648 C-70.73785645 46.39653564 -69.97424805 45.9241748 -69.1875 45.4375 C-67.61760998 44.44540094 -66.04859382 43.45191768 -64.48046875 42.45703125 C-63.7229834 41.97830566 -62.96549805 41.49958008 -62.18505859 41.00634766 C-59.74279316 39.44281153 -57.36285924 37.80587949 -55 36.125 C-50.74694198 33.10812493 -46.44905052 30.16385639 -42.125 27.25 C-41.46483887 26.80003662 -40.80467773 26.35007324 -40.12451172 25.88647461 C-35.35617022 22.6875 -35.35617022 22.6875 -33.125 22.6875 C-33.125 22.0275 -33.125 21.3675 -33.125 20.6875 C-26.375 16.6875 -26.375 16.6875 -24.125 16.6875 C-24.125 16.0275 -24.125 15.3675 -24.125 14.6875 C-22.62792969 13.49829102 -22.62792969 13.49829102 -20.546875 12.19140625 C-19.79792969 11.71509766 -19.04898438 11.23878906 -18.27734375 10.74804688 C-17.48457031 10.25369141 -16.69179687 9.75933594 -15.875 9.25 C-14.32732634 8.27339995 -12.78042655 7.29557223 -11.234375 6.31640625 C-10.54311523 5.88400635 -9.85185547 5.45160645 -9.13964844 5.00610352 C-7.07468941 3.69619832 -7.07468941 3.69619832 -5.06347656 2.06616211 C-3.125 0.6875 -3.125 0.6875 0 0 Z " fill="#0D838D" transform="translate(115.125,-0.6875)"/>
<path d="M0 0 C9.9 0 19.8 0 30 0 C30 42.57 30 85.14 30 129 C7.04729182 129 7.04729182 129 1.14754772 124.62689495 C-0.45887976 122.34943955 -0.36924551 120.74328128 -0.36076355 117.96968079 C-0.36488754 116.93061584 -0.36901154 115.8915509 -0.3732605 114.82099915 C-0.36247467 113.68164413 -0.35168884 112.54228912 -0.34057617 111.3684082 C-0.34101425 110.16828094 -0.34145233 108.96815369 -0.34190369 107.73165894 C-0.34017051 104.44039832 -0.32511531 101.14970075 -0.30418181 97.85853982 C-0.28544047 94.41923442 -0.28366659 90.9799217 -0.28010559 87.54057312 C-0.27077761 81.02760419 -0.24615376 74.51478614 -0.21605712 68.00188369 C-0.18253644 60.58722438 -0.16603299 53.17255791 -0.15097082 45.75784171 C-0.11960474 30.50512552 -0.06458342 15.2526172 0 0 Z " fill="#0D838E" transform="translate(475,296)"/>
<path d="M0 0 C0.14695312 1.41539062 0.14695312 1.41539062 0.296875 2.859375 C1.55454718 13.65800851 3.19850931 24.13745152 10 33 C10.53560547 33.82371094 10.53560547 33.82371094 11.08203125 34.6640625 C20.06478001 48.30342015 34.90524032 53.8070112 50 58 C50 66.58 50 75.16 50 84 C30.95951575 83.56726172 14.24184318 75.45242055 0 63 C-0.61488281 62.46890625 -1.22976562 61.9378125 -1.86328125 61.390625 C-16.1038805 48.16487305 -24.04058216 28.89711597 -27 10 C-22.84158131 6.20461787 -18.73229837 4.52120981 -13.5 2.75 C-12.75363281 2.481875 -12.00726563 2.21375 -11.23828125 1.9375 C-7.38273169 0.59999962 -4.14026497 -0.3614517 0 0 Z " fill="#F7B34F" transform="translate(60,149)"/>
<path d="M0 0 C8.5252559 0.50148564 17.1323135 3.02367436 23.94921875 8.26953125 C26 11 26 11 26.0078125 14.05859375 C25.05021002 17.72375368 24.0862886 21.37038723 23 25 C22.47986328 26.78470703 22.47986328 26.78470703 21.94921875 28.60546875 C17.7975347 41.45999567 10.38668472 51.43467596 1 61 C0.33742187 61.68707031 -0.32515625 62.37414062 -1.0078125 63.08203125 C-14.70610392 76.28551747 -32.27186951 83 -51 83 C-51 74.75 -51 66.5 -51 58 C-48.586875 57.29875 -46.17375 56.5975 -43.6875 55.875 C-33.31685535 52.70876923 -25.09527275 48.23407352 -17 41 C-16.34 41 -15.68 41 -15 41 C-14.73960937 40.2678125 -14.47921875 39.535625 -14.2109375 38.78125 C-12.9751452 35.94291414 -11.52922247 33.92809153 -9.625 31.5 C-2.97668699 22.17024682 -1.38767794 11.15620029 0 0 Z " fill="#F8B34F" transform="translate(169,149)"/>
<path d="M0 0 C4.92550318 2.62764424 8.17337528 5.99668835 9.93359375 11.27734375 C10.8463624 18.97233005 10.22065275 24.21488362 5.63671875 30.53515625 C1.90663305 34.35079437 -1.57882576 34.64011457 -6.81640625 34.77734375 C-12.7053546 34.69759757 -16.11874444 33.85939836 -20.61328125 30.078125 C-25.06897194 24.55642229 -24.65193378 18.02005921 -24.06640625 11.27734375 C-22.20858788 5.80166857 -19.13089285 3.06710694 -14.20703125 0.19140625 C-9.78648435 -1.69619954 -4.5167783 -1.57959166 0 0 Z " fill="#0D838E" transform="translate(497.06640625,247.72265625)"/>
</svg>
