<?xml version="1.0" encoding="UTF-8"?>
<svg version="1.1" xmlns="http://www.w3.org/2000/svg" width="1020" height="640">
<path d="M0 0 C336.6 0 673.2 0 1020 0 C1020 211.2 1020 422.4 1020 640 C683.4 640 346.8 640 0 640 C0 428.8 0 217.6 0 0 Z " fill="#054AD9" transform="translate(0,0)"/>
<path d="M0 0 C86.79 0 173.58 0 263 0 C263 25.74 263 51.48 263 78 C288.74 78 314.48 78 341 78 C341 168.09 341 258.18 341 351 C289.52 351 238.04 351 185 351 C185 339.12 185 327.24 185 315 C182.21433594 316.43472656 179.42867187 317.86945313 176.55859375 319.34765625 C173.80836939 320.76165966 171.05765043 322.17469647 168.30688477 323.58764648 C166.4203 324.55734431 164.53421709 325.52801926 162.64868164 326.49975586 C131.43839324 342.58180455 131.43839324 342.58180455 118.625 346.6875 C117.74432861 346.97512207 116.86365723 347.26274414 115.95629883 347.55908203 C89.22811287 356.10651561 61.35048822 358.30959951 34 351 C33.33871094 350.82339844 32.67742187 350.64679688 31.99609375 350.46484375 C12.84591314 345.06761122 -5.97859496 331.53078637 -16.046875 314.19775391 C-24.67957939 298.50797006 -29.31649177 282.97769551 -29.30078125 265 C-29.30506638 263.88423584 -29.3093515 262.76847168 -29.31376648 261.61889648 C-29.31947587 259.26921258 -29.32003527 256.91951101 -29.31567383 254.56982422 C-29.312533 251.03711519 -29.33595093 247.50526099 -29.36132812 243.97265625 C-29.4372009 216.6866231 -26.21075475 187.92644726 -7.546875 166.52734375 C23.65032291 135.56938815 72.13671184 130.93288003 113.67503357 126.82810974 C119.53031246 126.2493119 125.38346429 125.6525639 131.23565674 125.04335022 C135.54233869 124.59568791 139.84963595 124.1541074 144.15698242 123.71289062 C146.35676124 123.48631521 148.5563051 123.25744767 150.75561523 123.02636719 C154.00183368 122.68584638 157.24883628 122.35388475 160.49609375 122.0234375 C161.45994492 121.92034271 162.42379608 121.81724792 163.41685486 121.71102905 C170.72053054 120.97989489 177.56018251 121 185 121 C185 106.81 185 92.62 185 78 C123.95 78 62.9 78 0 78 C0 52.26 0 26.52 0 0 Z " fill="#FEFEFE" transform="translate(354,141)"/>
<path d="M0 0 C25.74 0 51.48 0 78 0 C78 90.09 78 180.18 78 273 C52.26 273 26.52 273 0 273 C0 182.91 0 92.82 0 0 Z " fill="#FE8801" transform="translate(617,219)"/>
<path d="M0 0 C61.05 0 122.1 0 185 0 C185 25.74 185 51.48 185 78 C123.95 78 62.9 78 0 78 C0 52.26 0 26.52 0 0 Z " fill="#FDFEFE" transform="translate(354,141)"/>
<path d="M0 0 C0 16.17 0 32.34 0 49 C-9.24334096 54.19937929 -18.31714841 59.29521917 -27.8125 63.9375 C-35.3133326 67.63975018 -42.74995344 71.42847166 -50.125 75.375 C-69.55329703 85.66021354 -93.65931129 95.99322677 -116.140625 91.3515625 C-123.17841451 89.0515028 -129.26686415 85.4712949 -133.203125 79.03173828 C-136.51387852 71.59403854 -136.64476883 64.25977734 -136.57641602 56.26855469 C-136.56251883 54.00306895 -136.59675167 51.74170344 -136.63476562 49.4765625 C-136.69073074 38.95721233 -134.87638712 31.29413114 -127.875 23.1875 C-114.38039244 10.92750547 -91.51673916 9.28796296 -74.1875 7.5 C-72.34996068 7.29983748 -70.51256091 7.09839032 -68.67529297 6.89575195 C-64.80793173 6.47161184 -60.93978459 6.05604079 -57.07080078 5.64697266 C-50.76213712 4.97832072 -44.45723681 4.27740213 -38.15234375 3.57421875 C-33.97669092 3.11081463 -29.80088075 2.64884535 -25.625 2.1875 C-24.11841324 2.02072754 -24.11841324 2.02072754 -22.58139038 1.85058594 C-19.73426753 1.53669529 -16.88675006 1.22668909 -14.0390625 0.91796875 C-12.77321571 0.77774544 -12.77321571 0.77774544 -11.48179626 0.63468933 C-10.30672264 0.50843925 -10.30672264 0.50843925 -9.10791016 0.37963867 C-8.09333237 0.26902351 -8.09333237 0.26902351 -7.05825806 0.15617371 C-4.71167477 -0.02187715 -2.35332854 0 0 0 Z " fill="#054ADA" transform="translate(539,330)"/>
<path d="M0 0 C25.74 0 51.48 0 78 0 C78 25.74 78 51.48 78 78 C52.26 78 26.52 78 0 78 C0 52.26 0 26.52 0 0 Z " fill="#FE8801" transform="translate(539,141)"/>
</svg>
