<?xml version="1.0" encoding="UTF-8"?>
<svg version="1.1" xmlns="http://www.w3.org/2000/svg" width="295" height="171">
<path d="M0 0 C97.35 0 194.7 0 295 0 C295 56.43 295 112.86 295 171 C197.65 171 100.3 171 0 171 C0 114.57 0 58.14 0 0 Z " fill="white" transform="translate(0,0)"/>
<path d="M0 0 C1.19874756 -0.0071553 2.39749512 -0.01431061 3.63256836 -0.02168274 C4.96803258 -0.02452311 6.30349708 -0.02723483 7.63896179 -0.02983093 C9.03999501 -0.03609475 10.44102656 -0.04274148 11.84205627 -0.04974365 C15.65412967 -0.0671606 19.46619052 -0.07770725 23.27829385 -0.08594918 C25.65932893 -0.09109778 28.04036011 -0.09717357 30.42139244 -0.10346031 C37.86926558 -0.12251418 45.31712879 -0.136745 52.76502162 -0.14507228 C61.36579472 -0.154847 69.96631061 -0.18117165 78.56699306 -0.22157317 C85.21249401 -0.25172032 91.85792118 -0.2665398 98.5034892 -0.26985329 C102.47369775 -0.27220536 106.44363159 -0.28118575 110.41376686 -0.30631447 C114.14929386 -0.32957603 117.8843649 -0.33383646 121.61994553 -0.32355309 C123.64315438 -0.32282079 125.66633998 -0.34192544 127.68945312 -0.36161804 C128.89666016 -0.35467422 130.10386719 -0.34773041 131.34765625 -0.34057617 C132.39498082 -0.34296453 133.44230539 -0.34535288 134.52136707 -0.34781361 C138.09571963 0.27451811 139.77063354 1.6625685 142.36430359 4.14717102 C143.69114052 6.80084488 143.49933086 8.80994779 143.51147461 11.78286743 C143.52220757 13.58098877 143.52220757 13.58098877 143.53315735 15.41543579 C143.53599772 16.75090001 143.53870944 18.08636451 143.54130554 19.42182922 C143.54756936 20.82286244 143.55421609 22.22389399 143.56121826 23.62492371 C143.57863521 27.4369971 143.58918186 31.24905795 143.59742379 35.06116128 C143.60257239 37.44219636 143.60864818 39.82322754 143.61493492 42.20425987 C143.63398879 49.65213301 143.64821961 57.09999622 143.65654689 64.54788905 C143.66632161 73.14866215 143.69264625 81.74917804 143.73304778 90.34986049 C143.76319493 96.99536144 143.77801441 103.64078861 143.7813279 110.28635663 C143.78367997 114.25656518 143.79266036 118.22649902 143.81778908 122.19663429 C143.84105064 125.93216129 143.84531107 129.66723234 143.83502769 133.40281296 C143.8342954 135.42602181 143.85340005 137.44920741 143.87309265 139.47232056 C143.86267693 141.2831311 143.86267693 141.2831311 143.85205078 143.13052368 C143.85443913 144.17784825 143.85682749 145.22517282 143.85928822 146.3042345 C143.2369565 149.87858707 141.84890611 151.55350098 139.36430359 154.14717102 C136.71062973 155.47400795 134.70152682 155.28219829 131.72860718 155.29434204 C130.52985962 155.30149734 129.33111206 155.30865265 128.09603882 155.31602478 C126.7605746 155.31886516 125.4251101 155.32157687 124.08964539 155.32417297 C122.68861217 155.33043679 121.28758062 155.33708352 119.8865509 155.34408569 C116.07447751 155.36150264 112.26241666 155.37204929 108.45031333 155.38029122 C106.06927824 155.38543982 103.68824707 155.39151561 101.30721474 155.39780235 C93.8593416 155.41685623 86.41147839 155.43108704 78.96358556 155.43941432 C70.36281246 155.44918905 61.76229657 155.47551369 53.16161412 155.51591522 C46.51611317 155.54606236 39.870686 155.56088184 33.22511798 155.56419533 C29.25490943 155.5665474 25.28497559 155.57552779 21.31484032 155.60065651 C17.57931332 155.62391808 13.84424227 155.6281785 10.10866165 155.61789513 C8.0854528 155.61716283 6.0622672 155.63626748 4.03915405 155.65596008 C2.22834351 155.64554436 2.22834351 155.64554436 0.38095093 155.63491821 C-0.66637364 155.63730657 -1.71369822 155.63969492 -2.7927599 155.64215565 C-6.36711246 155.01982393 -8.04202637 153.63177354 -10.63569641 151.14717102 C-11.96253334 148.49349716 -11.77072368 146.48439425 -11.78286743 143.51147461 C-11.79002274 142.31272705 -11.79717804 141.11397949 -11.80455017 139.87890625 C-11.80739055 138.54344203 -11.81010226 137.20797753 -11.81269836 135.87251282 C-11.81896218 134.4714796 -11.82560891 133.07044805 -11.83261108 131.66941833 C-11.85002803 127.85734494 -11.86057468 124.04528409 -11.86881661 120.23318076 C-11.87396521 117.85214568 -11.880041 115.4711145 -11.88632774 113.09008217 C-11.90538162 105.64220903 -11.91961243 98.19434582 -11.92793971 90.74645299 C-11.93771444 82.14567989 -11.96403908 73.545164 -12.00444061 64.94448155 C-12.03458775 58.2989806 -12.04940723 51.65355343 -12.05272073 45.00798541 C-12.05507279 41.03777686 -12.06405318 37.06784302 -12.0891819 33.09770775 C-12.11244347 29.36218075 -12.11670389 25.6271097 -12.10642052 21.89152908 C-12.10568822 19.86832023 -12.12479287 17.84513463 -12.14448547 15.82202148 C-12.13754166 14.61481445 -12.13059784 13.40760742 -12.1234436 12.16381836 C-12.12583196 11.11649379 -12.12822031 10.06916922 -12.13068104 8.99010754 C-11.50834932 5.41575498 -10.12029893 3.74084106 -7.63569641 1.14717102 C-4.98202255 -0.17966591 -2.97291964 0.01214375 0 0 Z " fill="#FBFBFB" transform="translate(81.63569641113281,7.8528289794921875)"/>
<path d="M0 0 C4.16430178 3.38891188 6.64789941 7.76343209 7.48168945 13.09204102 C7.61384222 15.56958463 7.6266973 18.0192206 7.59375 20.5 C7.60079956 21.40194092 7.60784912 22.30388184 7.6151123 23.2331543 C7.64439384 27.05695904 7.62799104 30.88024138 7.61572266 34.70410156 C7.61333145 37.51137205 7.6343092 40.31783074 7.65625 43.125 C7.64493042 43.97731201 7.63361084 44.82962402 7.62194824 45.70776367 C7.67192657 51.68682743 9.11678882 55.689158 12.125 60.8125 C13.3125 63.375 13.3125 63.375 13.125 65.8125 C11.05750839 68.46479638 8.66372629 70.61947261 6.125 72.8125 C5.1040625 73.8025 5.1040625 73.8025 4.0625 74.8125 C2.125 75.8125 2.125 75.8125 -0.8125 75.875 C-5.05483913 74.40316806 -6.33026341 72.47991449 -8.875 68.8125 C-8.875 68.1525 -8.875 67.4925 -8.875 66.8125 C-9.59945312 67.36679688 -10.32390625 67.92109375 -11.0703125 68.4921875 C-12.52050781 69.57886719 -12.52050781 69.57886719 -14 70.6875 C-14.95132813 71.40679687 -15.90265625 72.12609375 -16.8828125 72.8671875 C-24.31881559 77.70156026 -32.70035131 77.91332878 -41.28515625 76.3828125 C-46.63355867 74.71336897 -49.83562193 71.43155482 -52.875 66.8125 C-55.95273348 60.79693002 -55.80447242 52.94424235 -54.33984375 46.43359375 C-52.05204808 39.84524229 -48.39209932 35.50354448 -42.46484375 32.015625 C-33.02225253 27.62902154 -23.21080019 26.11959719 -12.875 26.8125 C-13.01620714 24.87465735 -13.16312873 22.93723045 -13.3125 21 C-13.39371094 19.92105469 -13.47492188 18.84210937 -13.55859375 17.73046875 C-13.77712461 14.75260095 -13.77712461 14.75260095 -14.875 11.8125 C-19.44243432 9.8028289 -25.11642715 10.14815026 -29.6875 11.875 C-32.69511473 14.53888733 -33.52506665 17.04689645 -34.875 20.8125 C-40.65259884 20.93286664 -46.15459989 20.6445582 -51.875 19.8125 C-53.38679999 15.27710002 -51.794612 12.06256347 -49.875 7.8125 C-45.96929957 1.13971011 -39.99129209 -1.68074209 -32.875 -4.1875 C-21.94794927 -6.97213551 -9.64720397 -6.0371509 0 0 Z " fill="#020202" transform="translate(168.875,38.1875)"/>
<path d="M0 0 C3.6147144 0.58013935 6.35792334 1.56109854 9.5625 3.3125 C30.84951219 14.1751371 57.22616424 16.57343517 80.05078125 9.35107422 C83.3731726 8.24849026 86.66643662 7.09713086 89.953125 5.890625 C93 5 93 5 96 6 C96 6.66 96 7.32 96 8 C79.65905701 20.08073439 58.63741619 23.17057644 38.82177734 20.73193359 C25.53337745 18.39895651 10.78675676 11.40545455 1 2 C0.67 1.34 0.34 0.68 0 0 Z " fill="#F89629" transform="translate(95,117)"/>
<path d="M0 0 C0.9197599 14.5526456 0.9197599 14.5526456 -3.6484375 20.51171875 C-6.6134769 23.77668988 -7.95727025 24.84833022 -12.4375 25.5 C-16 25 -16 25 -18.9375 23.1875 C-21.96142074 18.51416795 -21.71877836 14.41534151 -21 9 C-19.69875271 5.1775861 -17.82151022 3.67005144 -14.4375 1.6875 C-9.68338958 -0.51691991 -5.14243976 -0.37936031 0 0 Z " fill="#FAFAFA" transform="translate(156,76)"/>
<path d="M0 0 C1.25167969 0.00644531 2.50335938 0.01289062 3.79296875 0.01953125 C6.8125 0.1875 6.8125 0.1875 7.8125 1.1875 C8.44941388 7.23818189 7.54855364 10.47429 4.19921875 15.5234375 C2.8125 17.1875 2.8125 17.1875 -0.1875 19.1875 C0.8125 14.1875 1.8125 9.1875 2.8125 4.1875 C-1.8075 4.1875 -6.4275 4.1875 -11.1875 4.1875 C-11.1875 3.5275 -11.1875 2.8675 -11.1875 2.1875 C-7.50311992 -0.16048025 -4.29573752 -0.04896696 0 0 Z " fill="#F89C36" transform="translate(192.1875,114.8125)"/>
<path d="M0 0 C-1.26941497 3.91402949 -2.51167694 5.79072873 -6 8 C-5.62403791 5.21788056 -5.32681541 3.4120716 -3.5625 1.1875 C-2 0 -2 0 0 0 Z " fill="#F79420" transform="translate(198,126)"/>
<path d="M0 0 C0.91007813 0.10183594 1.82015625 0.20367187 2.7578125 0.30859375 C3.45648438 0.39238281 4.15515625 0.47617188 4.875 0.5625 C4.875 0.8925 4.875 1.2225 4.875 1.5625 C-1.065 2.0575 -1.065 2.0575 -7.125 2.5625 C-7.125 1.9025 -7.125 1.2425 -7.125 0.5625 C-4.50184968 -0.74907516 -2.89466564 -0.33399988 0 0 Z " fill="#F7931F" transform="translate(188.125,116.4375)"/>
</svg>
