<?xml version="1.0" encoding="UTF-8"?>
<svg version="1.1" xmlns="http://www.w3.org/2000/svg" width="1200" height="630">
<path d="M0 0 C396 0 792 0 1200 0 C1200 207.9 1200 415.8 1200 630 C804 630 408 630 0 630 C0 422.1 0 214.2 0 0 Z " fill="#FFFFFF" transform="translate(0,0)"/>
<path d="M0 0 C166.32 0 332.64 0 504 0 C504 166.32 504 332.64 504 504 C337.68 504 171.36 504 0 504 C0 337.68 0 171.36 0 0 Z " fill="#00CEC6" transform="translate(348,63)"/>
<path d="M0 0 C0.95306544 -0.00679667 1.90613087 -0.01359334 2.88807708 -0.02059597 C6.07220981 -0.03954132 9.25595701 -0.0371328 12.44013977 -0.03465271 C14.72709649 -0.04363199 17.01404866 -0.05384063 19.30099487 -0.06518555 C25.50782405 -0.09167501 31.71452913 -0.09871866 37.92140937 -0.10063291 C41.80191635 -0.10276645 45.68239185 -0.10917331 49.56289101 -0.11712456 C62.40975335 -0.14344473 75.25651554 -0.15738496 88.10340097 -0.15513314 C88.79524743 -0.15501327 89.48709389 -0.1548934 90.1999054 -0.1547699 C90.89260302 -0.15464726 91.58530064 -0.15452461 92.29898909 -0.15439826 C103.51645722 -0.1531798 114.73362279 -0.18186796 125.95100345 -0.224185 C137.48648285 -0.26735633 149.02177584 -0.28744267 160.55734187 -0.28540367 C167.02662344 -0.28463995 173.49556266 -0.29312488 179.96477318 -0.32493782 C186.05281226 -0.35405891 192.14018358 -0.35416603 198.22824669 -0.33238792 C200.45661396 -0.32925982 202.68502337 -0.33628314 204.91331863 -0.3544693 C227.47460132 -0.52660494 227.47460132 -0.52660494 236.35542297 6.40113831 C239.05263718 9.22851626 241.32732659 12.06145862 243.35542297 15.40113831 C243.73569641 15.99410706 244.11596985 16.58707581 244.50776672 17.19801331 C248.72964012 28.17099301 244.34734743 41.37855568 241.06098938 51.99293518 C239.8131044 56.25215229 238.8484107 60.57677334 237.85542297 64.90113831 C236.39860034 71.15012584 234.86399007 77.3552338 233.10542297 83.52613831 C230.70447472 91.99248809 228.48345444 100.50337634 226.29292297 109.02613831 C226.10706635 109.74894989 225.92120972 110.47176147 225.72972107 111.21647644 C223.19600312 121.08469077 220.70934616 130.96434221 218.24604797 140.85035706 C217.9805867 141.91524353 217.71512543 142.98013 217.44161987 144.07728577 C216.12952629 149.34327511 214.8207968 154.6100681 213.51728821 159.87818909 C209.51158519 176.02183434 209.51158519 176.02183434 207.33979797 183.42848206 C205.63239328 189.26178718 204.16419732 195.13586063 202.73432922 201.04176331 C202.50509262 201.98392197 202.27585602 202.92608063 202.03967285 203.89678955 C201.09039758 207.80189276 200.14241483 211.70716908 199.21260071 215.61695862 C198.52255671 218.51135642 197.81716268 221.40167173 197.10932922 224.29176331 C196.9070723 225.15867798 196.70481537 226.02559265 196.49642944 226.91877747 C193.97767695 237.08155182 190.15594883 245.38236358 181.35542297 251.40113831 C173.86759516 255.42702722 166.94825742 255.98651288 158.56880188 255.95045471 C156.70820885 255.96578751 156.70820885 255.96578751 154.81002808 255.98143005 C151.43562831 256.00433236 148.06221687 256.00939161 144.68780947 256.00430346 C141.85761401 256.00214952 139.02750712 256.01196752 136.19733083 256.0215143 C129.51330588 256.04363192 122.82950579 256.0446208 116.14546204 256.03248596 C109.27987409 256.02041205 102.41510648 256.04502892 95.54965842 256.0876261 C89.62739727 256.12300231 83.70539553 256.13483837 77.78303277 256.12835062 C74.2580628 256.12474721 70.73367809 256.12976951 67.20880508 256.15777969 C63.27249442 256.18789473 59.33720685 256.16887258 55.40083313 256.14576721 C54.25344162 256.16105469 53.10605011 256.17634216 51.92388916 256.1920929 C42.97517521 256.07665235 35.25515478 253.58166003 28.3519907 247.69178104 C20.91619842 240.03699925 19.06795074 228.06932458 16.64057922 218.09254456 C16.30021412 216.71729365 15.95917063 215.34221048 15.61749268 213.96728516 C14.72385381 210.36436987 13.8384923 206.75947461 12.95521545 203.15400696 C11.5513759 197.43100458 10.13376907 191.71138176 8.71883774 185.99111366 C8.20524262 183.91379476 7.69250602 181.83626512 7.17979431 179.75872803 C4.83836405 170.28260207 2.40841478 160.83393831 -0.1118927 151.40397644 C-1.65575067 145.59922966 -3.14446185 139.77979484 -4.64457703 133.96363831 C-4.89987183 132.97472595 -4.89987183 132.97472595 -5.1603241 131.96583557 C-7.47754376 122.98721632 -9.75805342 114.00024026 -11.99003601 105.00001526 C-13.48727169 98.97978701 -15.07704244 92.98876662 -16.69145203 86.99879456 C-17.652608 83.37082468 -18.56023607 79.73300473 -19.45707703 76.08863831 C-21.29357506 68.64488944 -23.27496133 61.24140469 -25.26957703 53.83863831 C-25.57097595 52.71997375 -25.87237488 51.6013092 -26.1829071 50.44874573 C-26.4718988 49.37987122 -26.7608905 48.3109967 -27.05863953 47.20973206 C-27.33280701 46.1946759 -27.60697449 45.17961975 -27.88945007 44.13380432 C-28.50234678 41.91584348 -29.15373116 39.71790142 -29.82817078 37.51832581 C-31.98955846 29.26575464 -31.61103627 21.13971756 -27.32817078 13.69020081 C-20.10459022 3.86881285 -11.89039528 -0.06263755 0 0 Z " fill="#FCFEFE" transform="translate(492.6445770263672,187.59886169433594)"/>
<path d="M0 0 C1.06140858 -0.00891337 1.06140858 -0.00891337 2.14425975 -0.0180068 C4.51547671 -0.03535061 6.88649137 -0.03839464 9.25776672 -0.04138184 C10.95802236 -0.05064048 12.65827385 -0.06069011 14.35852051 -0.07147217 C18.97857373 -0.09770525 23.59856885 -0.11060748 28.21868491 -0.11949348 C31.10665209 -0.1253583 33.99460344 -0.13356861 36.88256264 -0.14250183 C45.92263677 -0.16984985 54.96267466 -0.1891832 64.00278729 -0.19690561 C74.43004891 -0.20586237 84.85678555 -0.24093746 95.28388757 -0.2989068 C103.34859654 -0.34218207 111.41315805 -0.36231642 119.47798187 -0.36498785 C124.29233696 -0.3670813 129.10619853 -0.37883814 133.92043114 -0.41462708 C138.45227715 -0.44766103 142.98326066 -0.45186598 147.5151844 -0.43434906 C149.17397756 -0.43281201 150.83281777 -0.44144553 152.49149323 -0.46126556 C160.75173482 -0.55414195 167.58864334 -0.63030401 174.40499592 4.7004776 C177.79154099 8.11200011 178.27468098 10.41538746 178.30220032 15.07556152 C178.17771157 22.55489967 176.61841378 29.36042051 174.71992493 36.56604004 C174.3766035 37.91493095 174.03468292 39.26417908 173.69406128 40.61375427 C172.79789823 44.14922801 171.88355803 47.67973681 170.96485901 51.20941162 C170.05811045 54.7051278 169.16772909 58.20499631 168.27656555 61.70471191 C167.22184343 65.84483024 166.16415285 69.98406545 165.09086609 74.11941528 C163.34769573 80.8435769 161.65131926 87.57317781 160.06025696 94.33508301 C159.75580154 95.61096786 159.45134613 96.88685272 159.13766479 98.20140076 C158.56975384 100.59317524 158.0139896 102.98788107 157.47296143 105.38587952 C155.72394479 112.69615774 154.03114638 118.65661595 147.40606689 122.94171143 C142.93644155 124.68564723 139.14107116 124.67935333 134.38838196 124.62145996 C133.44140945 124.62189804 132.49443695 124.62233612 131.51876831 124.62278748 C128.40201393 124.62070458 125.2858036 124.59739677 122.16914368 124.57385254 C120.00295811 124.56825482 117.83676873 124.56398555 115.670578 124.56098938 C109.97905425 124.54955453 104.28776146 124.52009883 98.59632874 124.48687744 C92.78469466 124.45614737 86.97302314 124.44247775 81.16133118 124.42736816 C69.76539657 124.395228 58.36963311 124.34404792 46.97383118 124.28088379 C46.97383118 124.94088379 46.97383118 125.60088379 46.97383118 126.28088379 C47.68410461 126.55932129 48.39437805 126.83775879 49.12617493 127.12463379 C50.53576477 127.69697754 50.53576477 127.69697754 51.97383118 128.28088379 C53.33701477 128.82229004 53.33701477 128.82229004 54.72773743 129.37463379 C58.57337822 131.30012848 61.98515471 133.07682797 63.8170929 137.1607666 C65.2116837 141.70648591 65.92869278 146.36321022 66.6164093 151.05969238 C67.11645644 154.16722578 67.92238892 157.17654612 68.72383118 160.21838379 C71.80893993 173.8859326 71.80893993 173.8859326 68.80195618 179.44885254 C65.24088331 183.90019362 61.7114151 185.9734522 55.96284485 186.61901855 C52.3619803 186.73099133 48.76370506 186.80091603 45.16133118 186.84338379 C43.91545227 186.8930127 42.66957336 186.9426416 41.38594055 186.99377441 C35.61679612 187.05804605 31.0108389 187.0618161 26.31758118 183.44104004 C22.12299015 179.00909327 20.71816908 173.96998518 19.28633118 168.15588379 C19.00289856 167.10126953 18.71946594 166.04665527 18.42744446 164.96008301 C17.57395545 161.74152723 16.76540317 158.51517794 15.97383118 155.28088379 C15.740672 154.33148926 15.50751282 153.38209473 15.26728821 152.40393066 C14.43413828 148.97828263 13.60601438 145.55252783 12.83442688 142.11242676 C11.655672 136.89167804 10.27325625 131.74558016 8.81367493 126.59729004 C6.47584843 118.30783211 4.35034459 109.96949603 2.26679993 101.61291504 C2.10171684 100.95088829 1.93663376 100.28886154 1.76654816 99.60677338 C0.73498817 95.46647242 -0.29316018 91.32532933 -1.32017517 87.18389893 C-2.68123647 81.69623435 -4.04550398 76.20937028 -5.41160202 70.72295761 C-5.91962618 68.67973413 -6.4255105 66.63598892 -6.93122864 64.5921936 C-8.66310344 57.61252813 -10.4491189 50.65173427 -12.32060242 43.70812988 C-12.69597972 42.30273233 -13.07112018 40.89727149 -13.4460144 39.491745 C-14.14881279 36.85686583 -14.86818408 34.22860641 -15.59814453 31.60090637 C-20.16099243 14.50855413 -20.16099243 14.50855413 -16.63554382 7.52697754 C-15.7151532 6.63172363 -15.7151532 6.63172363 -14.77616882 5.71838379 C-14.17288757 5.09834473 -13.56960632 4.47830566 -12.94804382 3.83947754 C-8.689414 0.38583262 -5.48103659 0.02572134 0 0 Z " fill="#02CEC6" transform="translate(520.0261688232422,221.7191162109375)"/>
<path d="M0 0 C33.99 0 67.98 0 103 0 C98.92 29.92 98.92 29.92 94 34 C91.19641361 35.40179319 88.83805213 35.16620984 85.7019043 35.20874023 C85.05615448 35.21852402 84.41040466 35.2283078 83.74508667 35.23838806 C81.60481834 35.26833897 79.46461248 35.28972656 77.32421875 35.30859375 C76.22755858 35.31845149 76.22755858 35.31845149 75.10874367 35.32850838 C71.23861246 35.36110107 67.36850878 35.38555175 63.49829102 35.4050293 C60.29606054 35.42284296 57.09471064 35.45766137 53.89282227 35.50756836 C50.02599268 35.56776943 46.15997952 35.59850421 42.29270363 35.60820198 C40.82025466 35.61675848 39.34782762 35.63558206 37.87564659 35.6649456 C26.41052773 35.88130591 26.41052773 35.88130591 22.98655701 33.74198914 C19.89453274 30.2260183 19.31931678 26.44703195 18.6875 21.9375 C16.8007551 12.13377746 9.21881901 7.44773772 1.40527344 2.06884766 C0.9415332 1.71612793 0.47779297 1.3634082 0 1 C0 0.67 0 0.34 0 0 Z " fill="#FBFEFE" transform="translate(545,267)"/>
</svg>
