<?xml version="1.0" encoding="UTF-8"?>
<svg version="1.1" xmlns="http://www.w3.org/2000/svg" width="331" height="152">
<path d="M0 0 C109.23 0 218.46 0 331 0 C331 50.16 331 100.32 331 152 C221.77 152 112.54 152 0 152 C0 101.84 0 51.68 0 0 Z " fill="#FDFDFD" transform="translate(0,0)"/>
<path d="M0 0 C2.32641602 1.03125 2.32641602 1.03125 4.75390625 2.5 C5.6773584 3.04978516 6.60081055 3.59957031 7.55224609 4.16601562 C8.54562988 4.77123047 9.53901367 5.37644531 10.5625 6 C12.71136092 7.28272311 14.86114006 8.56390894 17.01171875 9.84375 C18.14399902 10.52050781 19.2762793 11.19726562 20.44287109 11.89453125 C26.53618271 15.51720482 32.71101741 18.99950493 38.875 22.5 C41.16484951 23.80071306 43.45375588 25.10303914 45.7421875 26.40625 C46.7101123 26.95603516 47.67803711 27.50582031 48.67529297 28.07226562 C49.77244629 28.70841797 50.86959961 29.34457031 52 30 C52.85171783 30.31490387 53.70343567 30.62980774 54.58096313 30.95425415 C57.72214024 32.31930261 59.68095052 33.46048701 62 36 C63.43526269 41.73248626 63.16606692 47.33914779 62.9765625 53.2109375 C62.95789763 54.90625836 62.94366942 56.60163338 62.9336853 58.29702759 C62.89560591 62.74711554 62.79748086 67.19390907 62.68664551 71.6427002 C62.58411519 76.18712796 62.53862776 80.73209133 62.48828125 85.27734375 C62.38121783 94.18633889 62.21068393 103.09289493 62 112 C61.19991013 112.45653961 60.39982025 112.91307922 59.57548523 113.38345337 C56.56402983 115.10213542 53.55283003 116.82126366 50.54179382 118.54067993 C49.24662584 119.28015318 47.95136066 120.01945622 46.6559906 120.75857544 C39.35238564 124.92606658 32.0585765 129.10794712 24.8125 133.375 C24.12573181 133.77766586 23.43896362 134.18033173 22.73138428 134.59519958 C19.26426617 136.62873429 15.84210802 138.72040269 12.44140625 140.86328125 C11.67787842 141.33523926 10.91435059 141.80719727 10.12768555 142.29345703 C8.67259059 143.19392221 7.22659201 144.10933383 5.79223633 145.04248047 C2.40489839 147.12040279 0.52138152 147.99596721 -3.53515625 148.02734375 C-7.53225288 146.84218432 -10.81453233 145.07896183 -14.3125 142.875 C-15.80755455 141.96443737 -17.30372541 141.05570604 -18.80078125 140.1484375 C-19.62143066 139.64795898 -20.44208008 139.14748047 -21.28759766 138.63183594 C-26.47882163 135.50869093 -31.7452792 132.51462088 -37 129.5 C-40.17481748 127.67638524 -43.33305538 125.85466817 -46.44360352 123.92285156 C-49.07044547 122.37426402 -51.58252595 121.47934892 -54.50756836 120.63183594 C-59.82057445 118.82021029 -63.89730506 116.83543055 -67 112 C-70.08971308 101.52327631 -69.75157565 90.3719653 -69.60083008 79.54394531 C-69.55464059 76.01334139 -69.60290606 72.50558763 -69.74438477 68.97753906 C-70.86194632 40.95161106 -70.86194632 40.95161106 -64.75158691 33.1171875 C-59.13857808 28.36969074 -52.81711762 25.63330708 -45.96102905 23.12731934 C-41.98325569 21.61290636 -38.49506524 19.56750353 -34.8828125 17.34375 C-32.63089132 16.06129997 -30.37831924 14.77999199 -28.125 13.5 C-25.83532689 12.1989907 -23.54625299 10.89692622 -21.2578125 9.59375 C-20.19723633 8.99175781 -19.13666016 8.38976562 -18.04394531 7.76953125 C-14.36733625 5.63221472 -10.77852 3.36840015 -7.21435547 1.04882812 C-4.53327231 -0.22106529 -2.93876902 -0.36723921 0 0 Z " fill="#0A9848" transform="translate(74,2)"/>
<path d="M0 0 C7.64976213 4.16522504 15.27609764 8.36766624 22.875 12.625 C23.84179688 13.16511719 24.80859375 13.70523438 25.8046875 14.26171875 C36.24302905 20.10665745 46.6115159 26.06372337 57 32 C57 53.45 57 74.9 57 97 C52.71543596 95.57181199 49.8089992 94.48701477 46.078125 92.26953125 C45.14685791 91.72063232 44.21559082 91.1717334 43.25610352 90.60620117 C41.76808228 89.71831909 41.76808228 89.71831909 40.25 88.8125 C38.11894016 87.55392426 35.98741192 86.29614135 33.85546875 85.0390625 C32.74349121 84.38196289 31.63151367 83.72486328 30.48583984 83.04785156 C26.8957918 80.93316051 23.28804494 78.8498993 19.67578125 76.7734375 C18.77951523 76.25812721 18.77951523 76.25812721 17.86514282 75.73240662 C14.94985168 74.05720646 12.03332301 72.38418666 9.11621094 70.7121582 C8.06852539 70.10976318 7.02083984 69.50736816 5.94140625 68.88671875 C4.54450562 68.08560669 4.54450562 68.08560669 3.11938477 67.26831055 C1 66 1 66 0 65 C-0.09409479 62.97505769 -0.11743122 60.9468013 -0.11352539 58.91967773 C-0.11344986 57.61840439 -0.11337433 56.31713104 -0.11329651 54.97642517 C-0.10818909 53.54548098 -0.10297308 52.11453718 -0.09765625 50.68359375 C-0.09579203 49.2277074 -0.09436815 47.77182043 -0.09336853 46.31593323 C-0.08954365 42.47720621 -0.07971364 38.63851681 -0.06866455 34.79980469 C-0.05844978 30.88542184 -0.05387077 26.97103294 -0.04882812 23.05664062 C-0.03809134 15.37107657 -0.02101529 7.68554355 0 0 Z " fill="#FDFDFB" transform="translate(12,45)"/>
<path d="M0 0 C24.09 0 48.18 0 73 0 C73 0.66 73 1.32 73 2 C72.08992188 2.35964844 71.17984375 2.71929687 70.2421875 3.08984375 C64.64934033 5.49058673 59.41657607 8.57018504 54.125 11.5625 C53.01455322 12.18729248 51.90410645 12.81208496 50.76000977 13.45581055 C43.85698151 17.35122281 36.98277828 21.2916484 30.18212891 25.36352539 C22.86783098 29.72902749 15.43523954 33.81767776 8 38 C8 63.08 8 88.16 8 114 C21.365 121.425 21.365 121.425 35 129 C42.24318272 133.21692145 49.45853954 137.4655748 56.6328125 141.796875 C57.4047998 142.25924561 58.17678711 142.72161621 58.97216797 143.19799805 C60.4463848 144.08110607 61.91703063 144.97021465 63.38330078 145.86645508 C66.90841724 147.97372185 69.83520681 149.53993564 74 150 C73.67 150.66 73.34 151.32 73 152 C48.91 152 24.82 152 0 152 C0 101.84 0 51.68 0 0 Z " fill="#FEFDFC" transform="translate(0,0)"/>
<path d="M0 0 C0.30210937 8.33617388 0.53261205 16.67004007 0.67355824 25.01034546 C0.74123454 28.88403459 0.83286814 32.75396408 0.98071289 36.62548828 C1.1226904 40.36707923 1.19982374 44.10507413 1.23340416 47.84915161 C1.25730583 49.27215244 1.30399678 50.69496994 1.37449074 52.11642456 C1.59210911 56.68925022 1.52760734 60.66280841 0 65 C-3.9413447 68.69438877 -8.11984148 70.76293819 -13 73 C-14.28528181 73.73164485 -15.56304377 74.47714365 -16.82397461 75.25 C-17.83983643 75.8275 -18.85569824 76.405 -19.90234375 77 C-20.47223526 77.32484375 -21.04212677 77.6496875 -21.62928772 77.984375 C-23.39750788 78.99168192 -25.1674269 79.99595355 -26.9375 81 C-28.69544846 82.00021627 -30.45303732 83.00106233 -32.21060181 84.00195312 C-33.95178187 84.99256866 -35.69439201 85.98066919 -37.43701172 86.96875 C-39.94189338 88.39198812 -42.43639443 89.83192544 -44.92626953 91.28125 C-45.56697891 91.6525 -46.20768829 92.02375 -46.86781311 92.40625 C-48.10117456 93.12147931 -49.33257969 93.84009562 -50.56175232 94.5625 C-54.77581541 97 -54.77581541 97 -57 97 C-60.31119113 70.20057741 -60.31119113 70.20057741 -57 61 C-52.77944191 56.28788036 -47.36585495 54.47747805 -41.59863281 52.18652344 C-38.27731269 50.70437081 -35.68139991 49.46661225 -33 47 C-31.77211151 42.15347439 -32.27808106 37.56608706 -32.75 32.625 C-33.21971323 27.48459418 -33.51286842 22.97631314 -32 18 C-25.32797355 10.80136444 -15.8359352 6.92749417 -6.89501953 3.2355957 C-4.80772786 2.34473863 -2.15355886 0 0 0 Z " fill="#FDFBFB" transform="translate(131,45)"/>
<path d="M0 0 C2.68141645 1.15027673 5.19447804 2.48096607 7.74291992 3.90405273 C9.421521 4.83822021 9.421521 4.83822021 11.1340332 5.79125977 C12.33321823 6.46534667 13.53227171 7.13966764 14.73120117 7.81420898 C15.95619394 8.49912969 17.18129214 9.18386185 18.40649414 9.8684082 C26.53744202 14.421383 34.60170437 19.08030575 42.61010742 23.84545898 C46.7121898 26.27217438 50.85982909 28.59459694 55.04370117 30.87670898 C53.72365434 34.83684949 52.20307611 35.18691609 48.58276367 37.16186523 C47.4715918 37.77481445 46.36041992 38.38776367 45.21557617 39.01928711 C44.03346622 39.65959666 42.85117253 40.2995671 41.66870117 40.93920898 C40.49373647 41.58220275 39.31925107 42.2260732 38.14526367 42.87084961 C35.98722315 44.05602348 33.8267985 45.23687307 31.66333008 46.41210938 C28.93538484 47.89249256 28.93538484 47.89249256 26.04370117 49.87670898 C22.32671804 49.54345185 19.76215923 48.32301408 16.64526367 46.33764648 C15.83573242 45.84006836 15.02620117 45.34249023 14.19213867 44.82983398 C12.51192604 43.77905086 10.83738324 42.71914593 9.16870117 41.65014648 C5.46164525 39.39060764 2.92972243 37.92417441 -1.45629883 37.68920898 C-7.18235864 39.63197928 -12.02281264 42.87790196 -17.10473633 46.10327148 C-17.91426758 46.59827148 -18.72379883 47.09327148 -19.55786133 47.60327148 C-20.28312012 48.0629834 -21.00837891 48.52269531 -21.75561523 48.99633789 C-24.60303123 50.13543064 -26.05707119 49.78399129 -28.95629883 48.87670898 C-30.92578125 47.94042969 -30.92578125 47.94042969 -32.81176758 46.80249023 C-33.51245361 46.38483398 -34.21313965 45.96717773 -34.93505859 45.53686523 C-35.66394287 45.09213867 -36.39282715 44.64741211 -37.14379883 44.18920898 C-37.89395264 43.73803711 -38.64410645 43.28686523 -39.41699219 42.82202148 C-40.91113343 41.9230575 -42.4037668 41.02158189 -43.89477539 40.11743164 C-45.68197349 39.04181099 -47.48572956 37.99379405 -49.29223633 36.95092773 C-50.19200195 36.43143555 -51.09176758 35.91194336 -52.01879883 35.37670898 C-53.18088867 34.71155273 -53.18088867 34.71155273 -54.36645508 34.03295898 C-55.15342773 33.46061523 -55.15342773 33.46061523 -55.95629883 32.87670898 C-55.95629883 32.21670898 -55.95629883 31.55670898 -55.95629883 30.87670898 C-55.3246582 30.52592285 -54.69301758 30.17513672 -54.04223633 29.8137207 C-28.77161199 16.21171094 -28.77161199 16.21171094 -4.40258789 1.13525391 C-1.95629883 -0.12329102 -1.95629883 -0.12329102 0 0 Z " fill="#FCFDFD" transform="translate(71.956298828125,8.123291015625)"/>
<path d="M0 0 C5.9776556 4.49601447 9.67183076 11.43442898 11.078125 18.75 C11.95708515 27.64046581 10.5685909 35.60069882 5.5 43.078125 C0.24206313 49.47291309 -5.71424782 53.13538482 -13.921875 54.75 C-24.15878596 55.70699168 -32.21681362 54.01473583 -40.296875 47.5 C-46.56042345 41.61606055 -48.96669928 34.67222749 -49.26586914 26.21679688 C-49.40257623 16.99391247 -48.21560395 10.59186456 -41.90234375 3.47265625 C-30.29803494 -7.76584247 -13.44769051 -8.74646537 0 0 Z " fill="#040404" transform="translate(215.921875,77.25)"/>
<path d="M0 0 C4.69747764 3.43717876 7.77610822 7.34983249 9.5625 12.875 C10.27240783 19.78421921 10.70891434 27.09647647 6.94140625 33.1875 C3.52825577 37.36450002 0.26106859 40.41184142 -5.19140625 41.34765625 C-10.59292582 41.51668339 -14.93833977 41.08868588 -19.4375 37.875 C-24.76282929 32.42582585 -27.55563412 27.13284458 -27.875 19.5 C-27.67936385 13.30769056 -26.2231395 7.84540131 -21.90625 3.2421875 C-15.49800962 -2.25507754 -7.94520421 -2.60024865 0 0 Z " fill="#FBFBFB" transform="translate(205.4375,82.125)"/>
<path d="M0 0 C4.55186802 4.15605341 6.82239352 9.01622722 8 15 C8 17.31 8 19.62 8 22 C-2.56 22 -13.12 22 -24 22 C-21.75863873 29.65516421 -21.75863873 29.65516421 -18 33 C-13.3864754 34.53784153 -9.56278431 34.74741859 -5.125 32.625 C-2.90335175 31.17239958 -2.90335175 31.17239958 -2 29 C3.53846154 29.61538462 3.53846154 29.61538462 5.875 31.5625 C6.24625 32.036875 6.6175 32.51125 7 33 C3.6986051 38.16740072 -0.22386244 40.38164849 -6 42 C-13.31720175 43.06360402 -19.39367782 42.26896132 -25.8671875 38.63671875 C-29.28418843 36.01451474 -31.17411871 32.84708941 -33 29 C-33.33 28.34 -33.66 27.68 -34 27 C-35.29869131 11.82386441 -35.29869131 11.82386441 -30.4921875 5.578125 C-21.84202056 -3.57021909 -11.48864554 -5.90078292 0 0 Z " fill="#060606" transform="translate(318,90)"/>
<path d="M0 0 C3.3 0 6.6 0 10 0 C10.33 1.65 10.66 3.3 11 5 C11.78375 4.360625 12.5675 3.72125 13.375 3.0625 C18.73643481 -1.15005592 24.37860172 -0.70080493 31 0 C34.98327488 1.66342752 36.69613643 4.40032794 38.63012695 8.21704102 C40.18552655 12.00636276 40.34410432 15.35695333 40.29296875 19.46484375 C40.28872391 20.14301651 40.28447906 20.82118927 40.28010559 21.51991272 C40.26347941 23.65953402 40.22586174 25.79816947 40.1875 27.9375 C40.17243222 29.39907482 40.1587475 30.86066458 40.14648438 32.32226562 C40.11362977 35.88182397 40.06196241 39.44081556 40 43 C36.37 43 32.74 43 29 43 C28.98541748 42.07662842 28.97083496 41.15325684 28.95581055 40.2019043 C28.89473692 36.77422796 28.8205839 33.34735338 28.73754883 29.92016602 C28.70430577 28.43720146 28.67627177 26.95411056 28.65356445 25.47094727 C28.62000532 23.33815707 28.56769362 21.20652388 28.51171875 19.07421875 C28.48553467 17.79119873 28.45935059 16.50817871 28.43237305 15.1862793 C28.26146929 12.04389789 28.26146929 12.04389789 26.61425781 10.0871582 C24.38344652 8.5847682 22.73651047 8.53216855 20.0625 8.5 C19.20785156 8.4690625 18.35320312 8.438125 17.47265625 8.40625 C13.89189079 9.26608626 12.98561637 10.95350084 11 14 C10.36364535 17.27597454 10.36364535 17.27597454 10.390625 20.83203125 C10.35839844 22.12431641 10.32617188 23.41660156 10.29296875 24.74804688 C10.2782265 26.10286009 10.26390888 27.45767798 10.25 28.8125 C10.22182241 30.18688639 10.19189246 31.56123805 10.16015625 32.93554688 C10.08952726 36.2904241 10.03679226 39.64460896 10 43 C6.7 43 3.4 43 0 43 C0 28.81 0 14.62 0 0 Z " fill="#070707" transform="translate(236,88)"/>
<path d="M0 0 C2.32641602 1.03125 2.32641602 1.03125 4.75390625 2.5 C5.67743896 3.04986572 6.60097168 3.59973145 7.55249023 4.16625977 C8.54579346 4.77139404 9.53909668 5.37652832 10.5625 6 C12.71009396 7.28136276 14.85856957 8.56124874 17.0078125 9.83984375 C18.13993164 10.51644043 19.27205078 11.19303711 20.43847656 11.89013672 C25.95441982 15.17101717 31.53235995 18.34428879 37.1088562 21.52075195 C38.89639685 22.53908422 40.68281898 23.55935308 42.46899414 24.58007812 C48.6243282 28.09308112 54.79353862 31.57806456 61 35 C58.53721199 37.46278801 56.29323018 37.99771255 53 39 C53 38.34 53 37.68 53 37 C52.23429687 36.79890625 51.46859375 36.5978125 50.6796875 36.390625 C45.47419463 34.42336867 40.89689973 31.59230218 36.125 28.75 C35.08375977 28.13825928 34.04251953 27.52651855 32.96972656 26.89624023 C27.36961322 23.60405494 21.79215819 20.27593782 16.2265625 16.92578125 C15.14101074 16.27834961 14.05545898 15.63091797 12.93701172 14.96386719 C10.8411024 13.71345032 8.75135008 12.4526447 6.66845703 11.18066406 C5.72083496 10.61702148 4.77321289 10.05337891 3.796875 9.47265625 C2.96510742 8.97000244 2.13333984 8.46734863 1.27636719 7.94946289 C-1.46637798 6.80547577 -2.28089566 6.88433758 -5 8 C-6.92391551 8.96222234 -8.82108434 9.97856643 -10.69921875 11.02734375 C-11.81828613 11.65012207 -12.93735352 12.27290039 -14.09033203 12.91455078 C-15.28951706 13.58863769 -16.48857054 14.26295865 -17.6875 14.9375 C-18.91249277 15.6224207 -20.13759097 16.30715286 -21.36279297 16.99169922 C-28.1592101 20.79739523 -34.91888742 24.66201493 -41.625 28.625 C-42.30062988 29.02162842 -42.97625977 29.41825684 -43.67236328 29.8269043 C-46.39850096 31.43264986 -49.09489583 33.06182403 -51.74609375 34.7890625 C-56.94720183 38.06935664 -56.94720183 38.06935664 -60.3125 37.84765625 C-62.5625 37.3125 -62.5625 37.3125 -66 36 C-62.92453411 33.58206324 -59.73139229 31.62501149 -56.328125 29.69921875 C-55.19963135 29.05815186 -54.0711377 28.41708496 -52.90844727 27.7565918 C-52.31170197 27.41912933 -51.71495667 27.08166687 -51.10012817 26.73397827 C-47.95264491 24.95368386 -44.81041046 23.16417385 -41.66796875 21.375 C-41.0288707 21.01133835 -40.38977264 20.6476767 -39.73130798 20.272995 C-33.31743061 16.61931417 -26.93594412 12.91129333 -20.5625 9.1875 C-19.56959961 8.60766357 -18.57669922 8.02782715 -17.55371094 7.43041992 C-12.46823778 4.48419369 -12.46823778 4.48419369 -7.51538086 1.32543945 C-4.64648057 -0.18628137 -3.1944473 -0.44195557 0 0 Z " fill="#226FB4" transform="translate(74,2)"/>
<path d="M0 0 C2.48655701 1.12165833 2.48655701 1.12165833 5 3 C5.45082092 5.7207489 5.45082092 5.7207489 5.21508789 9.0534668 C5.14435562 10.30294601 5.07362335 11.55242523 5.00074768 12.83976746 C4.95364717 13.50838491 4.90654667 14.17700237 4.85801888 14.86588097 C4.6260281 18.43640228 4.54094005 22.01199374 4.42773438 25.58789062 C4.27331995 30.12837311 4.07895517 34.65631444 3.73510742 39.18676758 C2.60561997 53.87293409 2.60561997 53.87293409 6 68 C12.59642551 75.26565383 21.69324748 78.97404819 30.64047241 82.59567261 C34.78696543 84.32896206 38.53854126 86.45036111 42.3515625 88.80859375 C43.42535156 89.42927734 44.49914063 90.04996094 45.60546875 90.68945312 C46.60191406 91.26630859 47.59835938 91.84316406 48.625 92.4375 C50.78355175 93.68672061 52.94238948 94.93544726 55.1015625 96.18359375 C56.45241943 96.96561157 56.45241943 96.96561157 57.83056641 97.76342773 C59.20075408 98.54443162 60.58936005 99.29468003 62 100 C62 102.31 62 104.62 62 107 C58.19037936 105.575794 54.75596032 103.82091117 51.23046875 101.796875 C50.10519775 101.15258545 48.97992676 100.5082959 47.82055664 99.84448242 C46.60946025 99.14645608 45.39844311 98.44829222 44.1875 97.75 C42.94077964 97.03407677 41.69395219 96.31834001 40.44702148 95.6027832 C28.59697315 88.79523574 16.77201031 81.94164403 5 75 C4.13872498 74.62004883 3.27744995 74.24009766 2.39007568 73.84863281 C0 72 0 72 -0.60127258 68.90583801 C-0.59016953 67.63342758 -0.57906647 66.36101715 -0.56762695 65.05004883 C-0.56835709 64.34735367 -0.56908722 63.64465851 -0.56983948 62.92066956 C-0.5663567 60.59867059 -0.52746835 58.27867951 -0.48828125 55.95703125 C-0.47895545 54.34707231 -0.47183823 52.73709917 -0.46684265 51.12712097 C-0.44775416 46.89019576 -0.39863848 42.65412798 -0.34332275 38.4175415 C-0.29216954 34.09423421 -0.26933708 29.77078833 -0.24414062 25.44726562 C-0.19052057 16.96445032 -0.10518658 8.48233182 0 0 Z " fill="#F8B118" transform="translate(7,42)"/>
<path d="M0 0 C0 23.76 0 47.52 0 72 C-9.24 77.28 -18.48 82.56 -28 88 C-35.12406553 92.15968927 -42.24255175 96.31690959 -49.2890625 100.60546875 C-49.98604248 101.02836182 -50.68302246 101.45125488 -51.40112305 101.88696289 C-52.72286621 102.69053076 -54.04219719 103.49808487 -55.35864258 104.31030273 C-59.77861175 107 -59.77861175 107 -62 107 C-62 104.69 -62 102.38 -62 100 C-61.27111572 99.59797363 -60.54223145 99.19594727 -59.79125977 98.78173828 C-39.79905352 87.90476565 -39.79905352 87.90476565 -20.24438477 76.27529907 C-18 75 -18 75 -15.03404236 73.7600708 C-11.5371337 72.14197802 -8.85235242 70.60319749 -6 68 C-4.32156382 63.10075238 -4.5521758 58.31420537 -4.75 53.203125 C-4.76011374 51.76302954 -4.76433173 50.32288176 -4.76293945 48.88275146 C-4.77238668 45.10739466 -4.8498989 41.33672326 -4.94561768 37.56268311 C-5.08792947 31.51067861 -5.12800102 25.45729341 -5.16442871 19.40389252 C-5.18721794 17.29176693 -5.24021162 15.18204613 -5.29785156 13.07061768 C-5.31686523 11.79208923 -5.33587891 10.51356079 -5.35546875 9.19628906 C-5.39643677 7.50587494 -5.39643677 7.50587494 -5.43823242 5.78131104 C-5 3 -5 3 -3.0402832 1.11273193 C-1 0 -1 0 0 0 Z " fill="#E32123" transform="translate(136,42)"/>
<path d="M0 0 C3.44311058 1.31293711 6.64211396 2.8143342 9.86328125 4.6015625 C10.66290283 5.04322754 11.46252441 5.48489258 12.28637695 5.93994141 C13.78430786 6.77404541 13.78430786 6.77404541 15.3125 7.625 C18.509375 9.39875 21.70625 11.1725 25 13 C25 22.57 25 32.14 25 42 C21.49622468 40.59848987 18.59777184 39.29878858 15.390625 37.43359375 C14.55402344 36.94826172 13.71742187 36.46292969 12.85546875 35.96289062 C11.99566406 35.45951172 11.13585937 34.95613281 10.25 34.4375 C9.37472656 33.93025391 8.49945313 33.42300781 7.59765625 32.90039062 C1.14223388 29.14223388 1.14223388 29.14223388 0 28 C-0.08767112 25.92737924 -0.10695873 23.85179706 -0.09765625 21.77734375 C-0.09443359 20.51728516 -0.09121094 19.25722656 -0.08789062 17.95898438 C-0.07953403 16.61848891 -0.07106907 15.27799412 -0.0625 13.9375 C-0.0574866 12.59310058 -0.05292342 11.2486994 -0.04882812 9.90429688 C-0.03699488 6.60282059 -0.02050971 3.30143197 0 0 Z " fill="#F8FBF8" transform="translate(44,64)"/>
<path d="M0 0 C3.46359373 2.49700943 5.22084652 4.94128124 6.6875 8.9375 C7.30000869 13.30162445 7.03271989 15.29637735 4.9375 19.1875 C1.63301887 23.22631027 0.0659348 24.64373521 -5.125 25.75 C-9.26901683 26.10432114 -12.45084124 25.61331418 -16.3125 23.9375 C-19.82504399 20.67909356 -22.16223156 17.50029175 -22.625 12.6875 C-22.15177657 7.00881883 -19.81355231 4.26401135 -15.625 0.5625 C-10.22288916 -2.08759211 -5.66318599 -1.81649362 0 0 Z " fill="#0B0B0B" transform="translate(221.3125,31.0625)"/>
<path d="M0 0 C3.86567517 2.69698268 6.14555836 5.31012103 7.140625 10.01953125 C7.47759871 14.51506688 6.85107225 17.27628636 4 20.8125 C0.76660824 24.05341127 -1.69751006 25.84583654 -6.4140625 25.8984375 C-11.69138016 25.56308955 -15.19855769 24.38690197 -19.3125 20.875 C-21.88027258 16.66597073 -21.98835128 12.68105354 -21.3125 7.875 C-16.73782856 -1.27434289 -9.29698353 -3.1574661 0 0 Z " fill="#0B0B0B" transform="translate(282.3125,31.125)"/>
<path d="M0 0 C2.31 0 4.62 0 7 0 C7.33 4.29 7.66 8.58 8 13 C8.99 12.34 9.98 11.68 11 11 C14.0169088 10.65938127 16.09407815 10.42787893 19 11 C21.69105198 13.17574416 23.45532928 14.91065856 25 18 C25.08372659 19.52148326 25.10730027 21.04655778 25.09765625 22.5703125 C25.09443359 23.46621094 25.09121094 24.36210938 25.08789062 25.28515625 C25.07951172 26.22230469 25.07113281 27.15945312 25.0625 28.125 C25.05798828 29.06988281 25.05347656 30.01476562 25.04882812 30.98828125 C25.03702357 33.32558387 25.02055759 35.66276061 25 38 C22.69 38 20.38 38 18 38 C17.97494385 37.39937744 17.9498877 36.79875488 17.92407227 36.17993164 C17.8084472 33.47388563 17.68557064 30.76821717 17.5625 28.0625 C17.52318359 27.11697266 17.48386719 26.17144531 17.44335938 25.19726562 C17.40146484 24.29814453 17.35957031 23.39902344 17.31640625 22.47265625 C17.27974854 21.64000244 17.24309082 20.80734863 17.20532227 19.94946289 C17.20632897 17.99661142 17.20632897 17.99661142 16 17 C12.54187831 16.66661404 12.54187831 16.66661404 9 17 C7.0243438 19.96348429 6.73623141 20.68020373 6.5859375 24.01171875 C6.54726562 24.76904297 6.50859375 25.52636719 6.46875 26.30664062 C6.4378125 27.09232422 6.406875 27.87800781 6.375 28.6875 C6.33632812 29.48478516 6.29765625 30.28207031 6.2578125 31.10351562 C6.16367506 33.06863475 6.08075368 35.0342854 6 37 C4.02 37 2.04 37 0 37 C0 24.79 0 12.58 0 0 Z " fill="#191919" transform="translate(232,19)"/>
<path d="M0 0 C8.25 0 16.5 0 25 0 C24.03570272 4.82148638 23.08227802 6.79223631 20.40234375 10.73828125 C19.68369141 11.80498047 18.96503906 12.87167969 18.22460938 13.97070312 C17.46241485 15.08475535 16.70004281 16.19868614 15.9375 17.3125 C15.17048062 18.44546065 14.40419649 19.57891945 13.63867188 20.71289062 C11.76634496 23.48016625 9.88411554 26.24073722 8 29 C13.61 29.33 19.22 29.66 25 30 C25 31.65 25 33.3 25 35 C16.09 35 7.18 35 -2 35 C-1.03576426 30.1788213 -0.18731736 28.41081719 2.5625 24.55078125 C3.27664062 23.53822266 3.99078125 22.52566406 4.7265625 21.48242188 C5.47679687 20.43634766 6.22703125 19.39027344 7 18.3125 C8.48007264 16.22590275 9.9592842 14.13869436 11.4375 12.05078125 C12.09621094 11.12950439 12.75492188 10.20822754 13.43359375 9.2590332 C15.007461 7.10353612 15.007461 7.10353612 16 5 C10.72 5 5.44 5 0 5 C0 3.35 0 1.7 0 0 Z " fill="#030303" transform="translate(172,21)"/>
<path d="M0 0 C3.63081339 1.56262855 6.93311367 3.53281529 10.28125 5.625 C10.97412109 6.04974609 11.66699219 6.47449219 12.38085938 6.91210938 C14.08091951 7.95559456 15.77540476 9.00815296 17.46875 10.0625 C14.47076439 13.29716868 11.36533819 15.59573233 7.59375 17.875 C6.58570312 18.50019531 5.57765625 19.12539062 4.5390625 19.76953125 C0.80830891 21.34062468 -0.68632819 21.25305955 -4.53125 20.0625 C-7.08336524 18.85351138 -9.49062769 17.4599638 -11.90625 16 C-12.54691406 15.62294922 -13.18757813 15.24589844 -13.84765625 14.85742188 C-15.41379066 13.93410383 -16.97323034 12.99944607 -18.53125 12.0625 C-18.53125 11.0725 -18.53125 10.0825 -18.53125 9.0625 C-15.97821285 7.5234776 -13.41585065 6.00654807 -10.84375 4.5 C-10.12251953 4.06236328 -9.40128906 3.62472656 -8.65820312 3.17382812 C-3.32687567 0.08214508 -3.32687567 0.08214508 0 0 Z " fill="#F9FBFB" transform="translate(72.53125,50.9375)"/>
<path d="M0 0 C2.38086768 18.77100498 2.38086768 18.77100498 -1.40771484 23.90917969 C-6.45009343 28.1888109 -12.6234907 30.49028317 -19 32 C-20.4639596 13.21627218 -20.4639596 13.21627218 -17.3125 8.4453125 C-14.92628844 6.91250299 -12.66741312 5.95465312 -10 5 C-8.32047939 4.06437664 -6.65300052 3.1067178 -5 2.125 C-1.1509434 0 -1.1509434 0 0 0 Z " fill="#F9FBF9" transform="translate(93,67)"/>
<path d="M0 0 C4.875 1.875 4.875 1.875 6 3 C5.93808404 4.52192815 5.8221685 6.04172332 5.68359375 7.55859375 C4.75039063 17.95236655 4.75039063 17.95236655 8.80957031 27.01904297 C13.72205158 30.63602972 19.25947256 33.0045608 25 35 C25 37.31 25 39.62 25 42 C21.61636394 40.71563748 18.51797586 39.25238128 15.390625 37.43359375 C14.55402344 36.94826172 13.71742187 36.46292969 12.85546875 35.96289062 C11.99566406 35.45951172 11.13585937 34.95613281 10.25 34.4375 C9.37472656 33.93025391 8.49945313 33.42300781 7.59765625 32.90039062 C1.14223388 29.14223388 1.14223388 29.14223388 0 28 C-0.08767112 25.92737924 -0.10695873 23.85179706 -0.09765625 21.77734375 C-0.09443359 20.51728516 -0.09121094 19.25722656 -0.08789062 17.95898438 C-0.07953403 16.61848891 -0.07106907 15.27799412 -0.0625 13.9375 C-0.0574866 12.59310058 -0.05292342 11.2486994 -0.04882812 9.90429688 C-0.03699488 6.60282059 -0.02050971 3.30143197 0 0 Z " fill="#F6B320" transform="translate(44,64)"/>
<path d="M0 0 C2.05112305 24.29306451 2.05112305 24.29306451 -1.11474609 30.01464844 C-4.41419561 33.2836415 -8.69228269 34.54987734 -13 36 C-14.92380652 37.11993911 -16.82364365 38.28289908 -18.6875 39.5 C-22.75 42 -22.75 42 -25 42 C-25 39.69 -25 37.38 -25 35 C-24.18994507 34.71842041 -24.18994507 34.71842041 -23.36352539 34.43115234 C-17.41873564 32.21362599 -11.30108347 29.81314505 -7 25 C-4.824356 18.6552707 -5.530038 11.77147398 -6.26025391 5.20141602 C-6 3 -6 3 -4.12646484 1.20288086 C-2 0 -2 0 0 0 Z " fill="#E22B2B" transform="translate(99,64)"/>
<path d="M0 0 C3.75968884 1.84068862 7.34619937 3.91459293 10.9375 6.0625 C11.90751953 6.63033203 12.87753906 7.19816406 13.87695312 7.78320312 C16.25750822 9.17870094 18.63135386 10.58441481 21 12 C18.61426621 13.89213369 16.92824652 15.02391783 14 16 C12.17822266 15.1796875 12.17822266 15.1796875 10.1640625 13.875 C9.42929688 13.41609375 8.69453125 12.9571875 7.9375 12.484375 C6.40136206 11.49834051 4.86748312 10.50877745 3.3359375 9.515625 C-0.82913557 6.83569222 -0.82913557 6.83569222 -5.57421875 5.890625 C-9.79991573 7.82314987 -13.58526635 10.45325066 -17.38476562 13.11328125 C-19.25792207 14.32655415 -20.87171356 15.32196184 -23 16 C-26.47265625 14.765625 -26.47265625 14.765625 -29 13 C-25.47293699 9.21126065 -21.16924612 6.87204133 -16.75 4.25 C-15.91597656 3.73050781 -15.08195312 3.21101563 -14.22265625 2.67578125 C-9.09472753 -0.35911534 -5.9333861 -2.00373367 0 0 Z " fill="#216FB4" transform="translate(76,46)"/>
<path d="M0 0 C2.4375 1.5 2.4375 1.5 4 4 C4.59107389 8.65470688 4.59775838 10.8523039 2.4375 15 C0 17 0 17 -3.5 17.625 C-7 17 -7 17 -9.4375 14.9375 C-11.3678696 11.30840515 -11.44314033 9.06211969 -11 5 C-8.93290088 -0.61069762 -5.65009039 -0.48707676 0 0 Z " fill="#F7F7F7" transform="translate(217,35)"/>
<path d="M0 0 C1.0209375 -0.01160156 1.0209375 -0.01160156 2.0625 -0.0234375 C4.62458372 0.50344262 5.48241135 1.25408864 7 3.375 C7.8392962 7.90417501 7.81875537 12.05239518 5.375 16 C2.27095134 17.79708081 0.53343747 17.96390625 -3 17.375 C-5.375 16 -5.375 16 -7 13.375 C-7.59263717 9.30644594 -8.20833681 5.06371536 -5.72265625 1.58984375 C-3.65120196 0.12902224 -2.5163377 -0.02859475 0 0 Z " fill="#F8F8F8" transform="translate(275,34.625)"/>
<path d="M0 0 C4.37352718 3.18903023 4.91379282 4.56896408 6 10 C-1.26 10 -8.52 10 -16 10 C-13.14061514 1.42184541 -9.00951042 -1.89330291 0 0 Z " fill="#F8F8F8" transform="translate(310,95)"/>
</svg>
